  0
SECTION
  2
HEADER
  9
$ACADVER
  1
AC1015
  9
$ACADMAINTVER
 70
     6
  9
$DWGCODEPAGE
  3
ANSI_936
  9
$INSBASE
 10
0.0
 20
0.0
 30
0.0
  9
$EXTMIN
 10
-20.5
 20
-6.875
 30
0.0
  9
$EXTMAX
 10
0.0
 20
48.875
 30
0.0
  9
$LIMMIN
 10
0.0
 20
0.0
  9
$LIMMAX
 10
420.0
 20
297.0
  9
$ORTHOMODE
 70
     0
  9
$REGENMODE
 70
     1
  9
$FILLMODE
 70
     1
  9
$QTEXTMODE
 70
     0
  9
$MIRRTEXT
 70
     1
  9
$LTSCALE
 40
1.0
  9
$ATTMODE
 70
     1
  9
$TEXTSIZE
 40
3.175
  9
$TRACEWID
 40
1.0
  9
$TEXTSTYLE
  7
Standard
  9
$CLAYER
  8
0
  9
$CELTYPE
  6
ByLayer
  9
$CECOLOR
 62
   256
  9
$CELTSCALE
 40
1.0
  9
$DISPSILH
 70
     0
  9
$DIMSCALE
 40
1.0
  9
$DIMASZ
 40
3.302
  9
$DIMEXO
 40
1.27
  9
$DIMDLI
 40
3.75
  9
$DIMRND
 40
0.0
  9
$DIMDLE
 40
0.0
  9
$DIMEXE
 40
3.175
  9
$DIMTP
 40
0.0
  9
$DIMTM
 40
0.0
  9
$DIMTXT
 40
3.175
  9
$DIMCEN
 40
2.5
  9
$DIMTSZ
 40
0.0
  9
$DIMTOL
 70
     0
  9
$DIMLIM
 70
     0
  9
$DIMTIH
 70
     1
  9
$DIMTOH
 70
     1
  9
$DIMSE1
 70
     0
  9
$DIMSE2
 70
     0
  9
$DIMTAD
 70
     0
  9
$DIMZIN
 70
     0
  9
$DIMBLK
  1

  9
$DIMASO
 70
     1
  9
$DIMSHO
 70
     1
  9
$DIMPOST
  1

  9
$DIMAPOST
  1

  9
$DIMALT
 70
     0
  9
$DIMALTD
 70
     3
  9
$DIMALTF
 40
0.0393700787
  9
$DIMLFAC
 40
1.0
  9
$DIMTOFL
 70
     1
  9
$DIMTVP
 40
0.0
  9
$DIMTIX
 70
     0
  9
$DIMSOXD
 70
     0
  9
$DIMSAH
 70
     0
  9
$DIMBLK1
  1

  9
$DIMBLK2
  1

  9
$DIMSTYLE
  2
ISO-25
  9
$DIMCLRD
 70
     0
  9
$DIMCLRE
 70
     0
  9
$DIMCLRT
 70
     0
  9
$DIMTFAC
 40
1.0
  9
$DIMGAP
 40
1.524
  9
$DIMJUST
 70
     0
  9
$DIMSD1
 70
     0
  9
$DIMSD2
 70
     0
  9
$DIMTOLJ
 70
     0
  9
$DIMTZIN
 70
     0
  9
$DIMALTZ
 70
     0
  9
$DIMALTTZ
 70
     0
  9
$DIMUPT
 70
     0
  9
$DIMDEC
 70
     3
  9
$DIMTDEC
 70
     3
  9
$DIMALTU
 70
     2
  9
$DIMALTTD
 70
     3
  9
$DIMTXSTY
  7
Standard
  9
$DIMAUNIT
 70
     0
  9
$DIMADEC
 70
     2
  9
$DIMALTRND
 40
0.0
  9
$DIMAZIN
 70
     0
  9
$DIMDSEP
 70
    44
  9
$DIMATFIT
 70
     3
  9
$DIMFRAC
 70
     0
  9
$DIMLDRBLK
  1

  9
$DIMLUNIT
 70
     2
  9
$DIMLWD
 70
    -2
  9
$DIMLWE
 70
    -2
  9
$DIMTMOVE
 70
     0
  9
$LUNITS
 70
     2
  9
$LUPREC
 70
     2
  9
$SKETCHINC
 40
1.0
  9
$FILLETRAD
 40
10.0
  9
$AUNITS
 70
     0
  9
$AUPREC
 70
     2
  9
$MENU
  1
.
  9
$ELEVATION
 40
0.0
  9
$PELEVATION
 40
0.0
  9
$THICKNESS
 40
0.0
  9
$LIMCHECK
 70
     0
  9
$CHAMFERA
 40
0.0
  9
$CHAMFERB
 40
0.0
  9
$CHAMFERC
 40
0.0
  9
$CHAMFERD
 40
0.0
  9
$SKPOLY
 70
     0
  9
$TDCREATE
 40
2458700.970631493
  9
$TDUCREATE
 40
2458700.63729816
  9
$TDUPDATE
 40
2458700.970689271
  9
$TDUUPDATE
 40
2458700.637355938
  9
$TDINDWG
 40
0.0000000116
  9
$TDUSRTIMER
 40
0.0000000116
  9
$USRTIMER
 70
     1
  9
$ANGBASE
 50
0.0
  9
$ANGDIR
 70
     0
  9
$PDMODE
 70
     0
  9
$PDSIZE
 40
-1.0
  9
$PLINEWID
 40
0.0
  9
$SPLFRAME
 70
     0
  9
$SPLINETYPE
 70
     6
  9
$SPLINESEGS
 70
     8
  9
$HANDSEED
  5
309
  9
$SURFTAB1
 70
     6
  9
$SURFTAB2
 70
     6
  9
$SURFTYPE
 70
     6
  9
$SURFU
 70
     6
  9
$SURFV
 70
     6
  9
$UCSBASE
  2

  9
$UCSNAME
  2

  9
$UCSORG
 10
0.0
 20
0.0
 30
0.0
  9
$UCSXDIR
 10
1.0
 20
0.0
 30
0.0
  9
$UCSYDIR
 10
0.0
 20
1.0
 30
0.0
  9
$UCSORTHOREF
  2

  9
$UCSORTHOVIEW
 70
     0
  9
$UCSORGTOP
 10
0.0
 20
0.0
 30
0.0
  9
$UCSORGBOTTOM
 10
0.0
 20
0.0
 30
0.0
  9
$UCSORGLEFT
 10
0.0
 20
0.0
 30
0.0
  9
$UCSORGRIGHT
 10
0.0
 20
0.0
 30
0.0
  9
$UCSORGFRONT
 10
0.0
 20
0.0
 30
0.0
  9
$UCSORGBACK
 10
0.0
 20
0.0
 30
0.0
  9
$PUCSBASE
  2

  9
$PUCSNAME
  2

  9
$PUCSORG
 10
0.0
 20
0.0
 30
0.0
  9
$PUCSXDIR
 10
1.0
 20
0.0
 30
0.0
  9
$PUCSYDIR
 10
0.0
 20
1.0
 30
0.0
  9
$PUCSORTHOREF
  2

  9
$PUCSORTHOVIEW
 70
     0
  9
$PUCSORGTOP
 10
0.0
 20
0.0
 30
0.0
  9
$PUCSORGBOTTOM
 10
0.0
 20
0.0
 30
0.0
  9
$PUCSORGLEFT
 10
0.0
 20
0.0
 30
0.0
  9
$PUCSORGRIGHT
 10
0.0
 20
0.0
 30
0.0
  9
$PUCSORGFRONT
 10
0.0
 20
0.0
 30
0.0
  9
$PUCSORGBACK
 10
0.0
 20
0.0
 30
0.0
  9
$USERI1
 70
     0
  9
$USERI2
 70
     0
  9
$USERI3
 70
     0
  9
$USERI4
 70
     0
  9
$USERI5
 70
     0
  9
$USERR1
 40
0.0
  9
$USERR2
 40
0.0
  9
$USERR3
 40
0.0
  9
$USERR4
 40
0.0
  9
$USERR5
 40
0.0
  9
$WORLDVIEW
 70
     1
  9
$SHADEDGE
 70
     3
  9
$SHADEDIF
 70
    70
  9
$TILEMODE
 70
     1
  9
$MAXACTVP
 70
    64
  9
$PINSBASE
 10
0.0
 20
0.0
 30
0.0
  9
$PLIMCHECK
 70
     0
  9
$PEXTMIN
 10
-20.5
 20
-6.875
 30
0.0
  9
$PEXTMAX
 10
0.0
 20
48.875
 30
0.0
  9
$PLIMMIN
 10
-26.2179487179
 20
-9.0192307692
  9
$PLIMMAX
 10
58.6935897436
 20
51.0192307692
  9
$UNITMODE
 70
     0
  9
$VISRETAIN
 70
     1
  9
$PLINEGEN
 70
     0
  9
$PSLTSCALE
 70
     1
  9
$TREEDEPTH
 70
  3020
  9
$CMLSTYLE
  2
Standard
  9
$CMLJUST
 70
     0
  9
$CMLSCALE
 40
20.0
  9
$PROXYGRAPHICS
 70
     1
  9
$MEASUREMENT
 70
     1
  9
$CELWEIGHT
370
    -1
  9
$ENDCAPS
280
     0
  9
$JOINSTYLE
280
     0
  9
$LWDISPLAY
290
     1
  9
$INSUNITS
 70
     4
  9
$HYPERLINKBASE
  1

  9
$STYLESHEET
  1

  9
$XEDIT
290
     1
  9
$CEPSNTYPE
380
     0
  9
$PSTYLEMODE
290
     1
  9
$FINGERPRINTGUID
  2
{CDE109AD-1A2E-4D82-A67E-68E0D071BA09}
  9
$VERSIONGUID
  2
{FAEB1C32-E019-11D5-929B-00C0DF256EC4}
  9
$EXTNAMES
290
     1
  9
$PSVPSCALE
 40
0.0
  9
$OLESTARTUP
290
     0
  0
ENDSEC
  0
SECTION
  2
CLASSES
  0
CLASS
  1
ACDBDICTIONARYWDFLT
  2
AcDbDictionaryWithDefault
  3
ObjectDBX Classes
 90
        0
280
     0
281
     0
  0
CLASS
  1
VISUALSTYLE
  2
AcDbVisualStyle
  3
ObjectDBX Classes
 90
     4095
280
     0
281
     0
  0
CLASS
  1
MATERIAL
  2
AcDbMaterial
  3
ObjectDBX Classes
 90
     1153
280
     0
281
     0
  0
CLASS
  1
SCALE
  2
AcDbScale
  3
ObjectDBX Classes
 90
     1153
280
     0
281
     0
  0
CLASS
  1
TABLESTYLE
  2
AcDbTableStyle
  3
ObjectDBX Classes
 90
     4095
280
     0
281
     0
  0
CLASS
  1
MLEADERSTYLE
  2
AcDbMLeaderStyle
  3
ACDB_MLEADERSTYLE_CLASS
 90
     4095
280
     0
281
     0
  0
CLASS
  1
SUN
  2
AcDbSun
  3
SCENEOE
 90
     1153
280
     0
281
     0
  0
CLASS
  1
ACDBPLACEHOLDER
  2
AcDbPlaceHolder
  3
ObjectDBX Classes
 90
        0
280
     0
281
     0
  0
CLASS
  1
LAYOUT
  2
AcDbLayout
  3
ObjectDBX Classes
 90
        0
280
     0
281
     0
  0
ENDSEC
  0
SECTION
  2
TABLES
  0
TABLE
  2
VPORT
  5
8
330
0
100
AcDbSymbolTable
 70
     1
  0
VPORT
  5
29
330
8
100
AcDbSymbolTableRecord
100
AcDbViewportTableRecord
  2
*Active
 70
     0
 10
0.0
 20
0.0
 11
1.0
 21
1.0
 12
-10.25
 22
21.0
 13
0.0
 23
0.0
 14
10.0
 24
10.0
 15
10.0
 25
10.0
 16
0.0
 26
0.0
 36
1.0
 17
0.0
 27
0.0
 37
0.0
 40
56.865
 41
0.3677130045
 42
50.0
 43
0.0
 44
0.0
 50
0.0
 51
0.0
 71
     0
 72
   100
 73
     1
 74
     3
 75
     0
 76
     0
 77
     0
 78
     0
281
     0
 65
     1
110
0.0
120
0.0
130
0.0
111
1.0
121
0.0
131
0.0
112
0.0
122
1.0
132
0.0
 79
     0
146
0.0
  0
ENDTAB
  0
TABLE
  2
LTYPE
  5
5
330
0
100
AcDbSymbolTable
 70
     6
  0
LTYPE
  5
14
330
5
100
AcDbSymbolTableRecord
100
AcDbLinetypeTableRecord
  2
ByBlock
 70
     0
  3

 72
    65
 73
     0
 40
0.0
  0
LTYPE
  5
15
330
5
100
AcDbSymbolTableRecord
100
AcDbLinetypeTableRecord
  2
ByLayer
 70
     0
  3

 72
    65
 73
     0
 40
0.0
  0
LTYPE
  5
16
330
5
100
AcDbSymbolTableRecord
100
AcDbLinetypeTableRecord
  2
Continuous
 70
     0
  3
Solid line
 72
    65
 73
     0
 40
0.0
  0
LTYPE
  5
6E
330
5
100
AcDbSymbolTableRecord
100
AcDbLinetypeTableRecord
  2
HIDDEN
 70
     0
  3
Hidden __ __ __ __ __ __ __ __ __ __ __ __ __ __
 72
    65
 73
     2
 40
1.905
 49
1.27
 74
     0
 49
-0.635
 74
     0
  0
LTYPE
  5
6F
330
5
100
AcDbSymbolTableRecord
100
AcDbLinetypeTableRecord
  2
PHANTOM
 70
     0
  3
Phantom ______  __  __  ______  __  __  ______
 72
    65
 73
     6
 40
12.7
 49
6.35
 74
     0
 49
-1.27
 74
     0
 49
1.27
 74
     0
 49
-1.27
 74
     0
 49
1.27
 74
     0
 49
-1.27
 74
     0
  0
LTYPE
  5
70
330
5
100
AcDbSymbolTableRecord
100
AcDbLinetypeTableRecord
  2
CENTER
 70
     0
  3
Center ____ _ ____ _ ____ _ ____ _ ____ _ ____
 72
    65
 73
     4
 40
10.16
 49
6.35
 74
     0
 49
-1.27
 74
     0
 49
1.27
 74
     0
 49
-1.27
 74
     0
  0
LTYPE
  5
71
330
5
100
AcDbSymbolTableRecord
100
AcDbLinetypeTableRecord
  2
CENTERX2
 70
     0
  3
Center (2x) ________  __  ________  __  _____
 72
    65
 73
     4
 40
20.32
 49
12.7
 74
     0
 49
-2.54
 74
     0
 49
2.54
 74
     0
 49
-2.54
 74
     0
  0
LTYPE
  5
72
330
5
100
AcDbSymbolTableRecord
100
AcDbLinetypeTableRecord
  2
DOT2
 70
     0
  3
Dot (.5x) ........................................
 72
    65
 73
     2
 40
0.635
 49
0.0
 74
     0
 49
-0.635
 74
     0
  0
ENDTAB
  0
TABLE
  2
LAYER
  5
2
330
0
100
AcDbSymbolTable
 70
     1
  0
LAYER
  5
10
330
2
100
AcDbSymbolTableRecord
100
AcDbLayerTableRecord
  2
0
 70
     0
 62
     7
  6
Continuous
370
    -3
390
F
  0
ENDTAB
  0
TABLE
  2
STYLE
  5
3
330
0
100
AcDbSymbolTable
 70
     1
  0
STYLE
  5
11
330
3
100
AcDbSymbolTableRecord
100
AcDbTextStyleTableRecord
  2
Standard
 70
     0
 40
0.0
 41
1.0
 50
0.0
 71
     0
 42
3.175
  3
txt
  4

  0
ENDTAB
  0
TABLE
  2
VIEW
  5
6
330
0
100
AcDbSymbolTable
 70
     0
  0
ENDTAB
  0
TABLE
  2
UCS
  5
7
330
0
100
AcDbSymbolTable
 70
     0
  0
ENDTAB
  0
TABLE
  2
APPID
  5
9
330
0
100
AcDbSymbolTable
 70
     1
  0
APPID
  5
12
330
9
100
AcDbSymbolTableRecord
100
AcDbRegAppTableRecord
  2
ACAD
 70
     0
  0
ENDTAB
  0
TABLE
  2
DIMSTYLE
  5
A
330
0
100
AcDbSymbolTable
 70
     1
100
AcDbDimStyleTable
  0
DIMSTYLE
105
27
330
A
100
AcDbSymbolTableRecord
100
AcDbDimStyleTableRecord
  2
ISO-25
 70
     0
 41
2.5
 42
0.625
 43
3.75
 44
1.25
 73
     0
 74
     0
 77
     1
 78
     8
140
2.5
141
2.5
143
0.0393700787
147
0.625
171
     3
172
     1
178
     0
271
     2
272
     2
274
     3
278
    44
283
     0
284
     8
340
11
  0
ENDTAB
  0
TABLE
  2
BLOCK_RECORD
  5
1
330
0
100
AcDbSymbolTable
 70
     1
  0
BLOCK_RECORD
  5
1F
330
1
100
AcDbSymbolTableRecord
100
AcDbBlockTableRecord
  2
*Model_Space
340
22
  0
BLOCK_RECORD
  5
1B
330
1
100
AcDbSymbolTableRecord
100
AcDbBlockTableRecord
  2
*Paper_Space
340
1E
  0
BLOCK_RECORD
  5
23
330
1
100
AcDbSymbolTableRecord
100
AcDbBlockTableRecord
  2
*Paper_Space0
340
26
  0
ENDTAB
  0
ENDSEC
  0
SECTION
  2
BLOCKS
  0
BLOCK
  5
20
330
1F
100
AcDbEntity
  8
0
100
AcDbBlockBegin
  2
*Model_Space
 70
     0
 10
0.0
 20
0.0
 30
0.0
  3
*Model_Space
  1

  0
ENDBLK
  5
21
330
1F
100
AcDbEntity
  8
0
100
AcDbBlockEnd
  0
BLOCK
  5
1C
330
1B
100
AcDbEntity
 67
     1
  8
0
100
AcDbBlockBegin
  2
*Paper_Space
 70
     0
 10
0.0
 20
0.0
 30
0.0
  3
*Paper_Space
  1

  0
ENDBLK
  5
1D
330
1B
100
AcDbEntity
 67
     1
  8
0
100
AcDbBlockEnd
  0
BLOCK
  5
24
330
23
100
AcDbEntity
  8
0
100
AcDbBlockBegin
  2
*Paper_Space0
 70
     0
 10
0.0
 20
0.0
 30
0.0
  3
*Paper_Space0
  1

  0
ENDBLK
  5
25
330
23
100
AcDbEntity
  8
0
100
AcDbBlockEnd
  0
ENDSEC
  0
SECTION
  2
ENTITIES
  0
SPLINE
  5
AD
330
1F
100
AcDbEntity
  8
0
  6
Continuous
 62
     7
370
    25
100
AcDbSpline
210
0.0
220
0.0
230
1.0
 70
     8
 71
     3
 72
    14
 73
    10
 74
     0
 42
0.000000001
 43
0.00000001
 40
0.0
 40
0.0
 40
0.0
 40
0.0
 40
0.25
 40
0.25
 40
0.5
 40
0.5
 40
0.75
 40
0.75
 40
1.0
 40
1.0
 40
1.0
 40
1.0
 10
-20.0
 20
42.00000000000001
 30
0.0
 10
-20.0595981800167
 20
41.83113848995269
 30
0.0
 10
-20.12268820702183
 20
41.66579032900015
 30
0.0
 10
-20.2424723300847
 20
41.33766818255388
 30
0.0
 10
-20.29895589629859
 20
41.17484520464441
 30
0.0
 10
-20.3945300673541
 20
40.84479746937957
 30
0.0
 10
-20.43342488453613
 20
40.67793092849678
 30
0.0
 10
-20.48607725024611
 20
40.3414996442433
 30
0.0
 10
-20.50000000000001
 20
40.17043737789404
 30
0.0
 10
-20.5
 20
40.0
 30
0.0
  0
SPLINE
  5
AE
330
1F
100
AcDbEntity
  8
0
  6
Continuous
 62
     7
370
    25
100
AcDbSpline
210
0.0
220
0.0
230
1.0
 70
    24
 71
     3
 72
    12
 73
     8
 74
     0
 42
0.000000001
 43
0.00000001
 40
0.0
 40
0.0
 40
0.0
 40
0.0
 40
0.2499999999999997
 40
0.2499999999999997
 40
0.4999999999999994
 40
0.4999999999999994
 40
1.0
 40
1.0
 40
1.0
 40
1.0
 10
-20.5
 20
42.00000000000001
 30
0.0
 10
-20.5
 20
41.80784787810757
 30
0.0
 10
-20.5
 20
41.61944055096313
 30
0.0
 10
-20.5
 20
41.25610639085063
 30
0.0
 10
-20.5
 20
41.08516382073366
 30
0.0
 10
-20.5
 20
40.59243541041226
 30
0.0
 10
-20.5
 20
40.29443337892607
 30
0.0
 10
-20.5
 20
40.0
 30
0.0
  0
SPLINE
  5
AF
330
1F
100
AcDbEntity
  8
0
  6
Continuous
 62
     7
370
    25
100
AcDbSpline
210
0.0
220
0.0
230
1.0
 70
     8
 71
     3
 72
    14
 73
    10
 74
     0
 42
0.000000001
 43
0.00000001
 40
0.0
 40
0.0
 40
0.0
 40
0.0
 40
0.2499999999999999
 40
0.2499999999999999
 40
0.4999999999999998
 40
0.4999999999999998
 40
0.7499999999999999
 40
0.7499999999999999
 40
1.0
 40
1.0
 40
1.0
 40
1.0
 10
-20.0
 20
-0.0000000000000173
 30
0.0
 10
-20.0595981800167
 20
0.1688615100473127
 30
0.0
 10
-20.12268820702183
 20
0.3342096709998549
 30
0.0
 10
-20.2424723300847
 20
0.6623318174461164
 30
0.0
 10
-20.29895589629859
 20
0.825154795355592
 30
0.0
 10
-20.3945300673541
 20
1.15520253062042
 30
0.0
 10
-20.43342488453613
 20
1.322069071503226
 30
0.0
 10
-20.4860772502461
 20
1.658500355756706
 30
0.0
 10
-20.50000000000001
 20
1.829562622105981
 30
0.0
 10
-20.5
 20
2.000000000000002
 30
0.0
  0
SPLINE
  5
B1
330
1F
100
AcDbEntity
  8
0
  6
Continuous
 62
     7
370
    25
100
AcDbSpline
210
0.0
220
0.0
230
1.0
 70
    24
 71
     3
 72
    12
 73
     8
 74
     0
 42
0.000000001
 43
0.00000001
 40
0.0
 40
0.0
 40
0.0
 40
0.0
 40
0.2500000000000003
 40
0.2500000000000003
 40
0.5000000000000006
 40
0.5000000000000006
 40
1.0
 40
1.0
 40
1.0
 40
1.0
 10
-20.5
 20
-0.0000000000000173
 30
0.0
 10
-20.5
 20
0.1921521218924312
 30
0.0
 10
-20.5
 20
0.3805594490368658
 30
0.0
 10
-20.5
 20
0.7438936091493757
 30
0.0
 10
-20.50000000000001
 20
0.9148361792663331
 30
0.0
 10
-20.5
 20
1.407564589587761
 30
0.0
 10
-20.49999999999999
 20
1.705566621074024
 30
0.0
 10
-20.5
 20
2.000000000000002
 30
0.0
  0
SPLINE
  5
B3
330
1F
100
AcDbEntity
  8
0
  6
Continuous
 62
     7
370
    25
100
AcDbSpline
210
0.0
220
0.0
230
1.0
 70
     8
 71
     3
 72
    14
 73
    10
 74
     0
 42
0.000000001
 43
0.00000001
 40
0.0
 40
0.0
 40
0.0
 40
0.0
 40
0.2500000000000001
 40
0.2500000000000001
 40
0.5
 40
0.5
 40
0.75
 40
0.75
 40
1.0
 40
1.0
 40
1.0
 40
1.0
 10
-0.5000000000000004
 20
-0.0000000000000173
 30
0.0
 10
-0.4404018199832965
 20
0.1688615100473093
 30
0.0
 10
-0.3773117929781727
 20
0.3342096709998549
 30
0.0
 10
-0.2575276699152939
 20
0.6623318174461129
 30
0.0
 10
-0.2010441037014077
 20
0.8251547953555884
 30
0.0
 10
-0.1054699326459019
 20
1.15520253062042
 30
0.0
 10
-0.0665751154638738
 20
1.322069071503222
 30
0.0
 10
-0.0139227497538957
 20
1.658500355756702
 30
0.0
 10
0.0000000000000017
 20
1.829562622106679
 30
0.0
 10
0.0000000000000017
 20
1.999999999999998
 30
0.0
  0
SPLINE
  5
B4
330
1F
100
AcDbEntity
  8
0
  6
Continuous
 62
     7
370
    25
100
AcDbSpline
210
0.0
220
0.0
230
1.0
 70
    24
 71
     3
 72
    12
 73
     8
 74
     0
 42
0.000000001
 43
0.00000001
 40
0.0
 40
0.0
 40
0.0
 40
0.0
 40
0.2500000000000003
 40
0.2500000000000003
 40
0.5000000000000007
 40
0.5000000000000007
 40
1.0
 40
1.0
 40
1.0
 40
1.0
 10
0.0
 20
-0.0000000000000173
 30
0.0
 10
0.0
 20
0.1921521218924312
 30
0.0
 10
0.0
 20
0.3805594490368623
 30
0.0
 10
0.0
 20
0.7438936091493722
 30
0.0
 10
0.0
 20
0.9148361792663297
 30
0.0
 10
0.0
 20
1.407564589587761
 30
0.0
 10
0.0
 20
1.705566621075811
 30
0.0
 10
0.0
 20
1.999999999999998
 30
0.0
  0
SPLINE
  5
B5
330
1F
100
AcDbEntity
  8
0
  6
Continuous
 62
     7
370
    25
100
AcDbSpline
210
0.0
220
0.0
230
1.0
 70
     8
 71
     3
 72
    14
 73
    10
 74
     0
 42
0.000000001
 43
0.00000001
 40
0.0
 40
0.0
 40
0.0
 40
0.0
 40
0.25
 40
0.25
 40
0.5
 40
0.5
 40
0.75
 40
0.75
 40
1.0
 40
1.0
 40
1.0
 40
1.0
 10
-0.5000000000000004
 20
42.00000000000001
 30
0.0
 10
-0.4404018199832965
 20
41.83113848995269
 30
0.0
 10
-0.377311792978171
 20
41.66579032900015
 30
0.0
 10
-0.2575276699152921
 20
41.33766818255388
 30
0.0
 10
-0.201044103701406
 20
41.1748452046444
 30
0.0
 10
-0.1054699326459019
 20
40.84479746937957
 30
0.0
 10
-0.0665751154638738
 20
40.67793092849678
 30
0.0
 10
-0.0139227497538957
 20
40.3414996442433
 30
0.0
 10
0.0000000000000017
 20
40.17043737789336
 30
0.0
 10
0.0000000000000017
 20
40.0
 30
0.0
  0
SPLINE
  5
B7
330
1F
100
AcDbEntity
  8
0
  6
Continuous
 62
     7
370
    25
100
AcDbSpline
210
0.0
220
0.0
230
1.0
 70
    24
 71
     3
 72
    12
 73
     8
 74
     0
 42
0.000000001
 43
0.00000001
 40
0.0
 40
0.0
 40
0.0
 40
0.0
 40
0.2500000000000003
 40
0.2500000000000003
 40
0.5000000000000007
 40
0.5000000000000007
 40
1.0
 40
1.0
 40
1.0
 40
1.0
 10
0.0
 20
42.00000000000001
 30
0.0
 10
0.0
 20
41.80784787810756
 30
0.0
 10
0.0
 20
41.61944055096315
 30
0.0
 10
0.0
 20
41.25610639085063
 30
0.0
 10
0.0
 20
41.08516382073368
 30
0.0
 10
0.0
 20
40.59243541041224
 30
0.0
 10
0.0
 20
40.2944333789243
 30
0.0
 10
0.0
 20
40.0
 30
0.0
  0
LINE
  5
12D
330
1F
100
AcDbEntity
  8
0
  6
Continuous
 62
     7
370
    25
100
AcDbLine
 10
-0.5
 20
2.0
 30
0.0
 11
-0.5
 21
40.0
 31
0.0
  0
LINE
  5
12E
330
1F
100
AcDbEntity
  8
0
  6
Continuous
 62
     7
370
    25
100
AcDbLine
 10
-18.5
 20
0.5
 30
0.0
 11
-2.0
 21
0.5
 31
0.0
  0
LINE
  5
12F
330
1F
100
AcDbEntity
  8
0
  6
Continuous
 62
     7
370
    25
100
AcDbLine
 10
-20.0
 20
40.0
 30
0.0
 11
-20.0
 21
2.0
 31
0.0
  0
LINE
  5
130
330
1F
100
AcDbEntity
  8
0
  6
Continuous
 62
     7
370
    25
100
AcDbLine
 10
-2.0
 20
41.5
 30
0.0
 11
-18.5
 21
41.5
 31
0.0
  0
LINE
  5
131
330
1F
100
AcDbEntity
  8
0
  6
Continuous
 62
     7
370
    25
100
AcDbLine
 10
-18.5
 20
42.0
 30
0.0
 11
-2.0
 21
42.0
 31
0.0
  0
LINE
  5
132
330
1F
100
AcDbEntity
  8
0
  6
Continuous
 62
     7
370
    25
100
AcDbLine
 10
-2.0
 20
41.5
 30
0.0
 11
-2.0
 21
42.5
 31
0.0
  0
LINE
  5
133
330
1F
100
AcDbEntity
  8
0
  6
Continuous
 62
     7
370
    25
100
AcDbLine
 10
-18.5
 20
41.5
 30
0.0
 11
-18.5
 21
42.5
 31
0.0
  0
LINE
  5
134
330
1F
100
AcDbEntity
  8
0
  6
Continuous
 62
     7
370
    25
100
AcDbLine
 10
-18.5
 20
0.5
 30
0.0
 11
-18.5
 21
-0.5
 31
0.0
  0
LINE
  5
135
330
1F
100
AcDbEntity
  8
0
  6
Continuous
 62
     7
370
    25
100
AcDbLine
 10
-20.0
 20
2.0
 30
0.0
 11
-20.5
 21
2.0
 31
0.0
  0
LINE
  5
136
330
1F
100
AcDbEntity
  8
0
  6
Continuous
 62
     7
370
    25
100
AcDbLine
 10
0.0
 20
40.0
 30
0.0
 11
-0.5
 21
40.0
 31
0.0
  0
LINE
  5
137
330
1F
100
AcDbEntity
  8
0
  6
Continuous
 62
     7
370
    25
100
AcDbLine
 10
-2.0
 20
0.5
 30
0.0
 11
-2.0
 21
-0.5
 31
0.0
  0
LINE
  5
138
330
1F
100
AcDbEntity
  8
0
  6
Continuous
 62
     7
370
    25
100
AcDbLine
 10
-2.0
 20
0.0
 30
0.0
 11
-18.5
 21
0.0
 31
0.0
  0
LINE
  5
139
330
1F
100
AcDbEntity
  8
0
  6
Continuous
 62
     7
370
    25
100
AcDbLine
 10
0.0
 20
40.0
 30
0.0
 11
0.0
 21
2.0
 31
0.0
  0
LINE
  5
13A
330
1F
100
AcDbEntity
  8
0
  6
Continuous
 62
     7
370
    25
100
AcDbLine
 10
0.0
 20
2.0
 30
0.0
 11
-0.5
 21
2.0
 31
0.0
  0
LINE
  5
13B
330
1F
100
AcDbEntity
  8
0
  6
Continuous
 62
     7
370
    25
100
AcDbLine
 10
-20.0
 20
40.0
 30
0.0
 11
-20.5
 21
40.0
 31
0.0
  0
LINE
  5
13C
330
1F
100
AcDbEntity
  8
0
  6
Continuous
 62
     7
370
    25
100
AcDbLine
 10
-20.5
 20
2.0
 30
0.0
 11
-20.5
 21
40.0
 31
0.0
  0
LINE
  5
13D
330
1F
100
AcDbEntity
  8
0
  6
Continuous
 62
     7
370
    25
100
AcDbLine
 10
-6.875
 20
43.05
 30
0.0
 11
-13.625
 21
43.05
 31
0.0
  0
LINE
  5
13E
330
1F
100
AcDbEntity
  8
0
  6
Continuous
 62
     7
370
    25
100
AcDbLine
 10
-13.125
 20
43.3
 30
0.0
 11
-13.125
 21
42.0
 31
0.0
  0
LINE
  5
13F
330
1F
100
AcDbEntity
  8
0
  6
Continuous
 62
     7
370
    25
100
AcDbLine
 10
-13.375
 20
43.3
 30
0.0
 11
-7.125
 21
43.3
 31
0.0
  0
LINE
  5
140
330
1F
100
AcDbEntity
  8
0
  6
Continuous
 62
     7
370
    25
100
AcDbLine
 10
-7.375
 20
42.0
 30
0.0
 11
-7.375
 21
43.3
 31
0.0
  0
LINE
  5
141
330
1F
100
AcDbEntity
  8
0
  6
Continuous
 62
     7
370
    25
100
AcDbLine
 10
-13.625
 20
42.0
 30
0.0
 11
-13.625
 21
43.05
 31
0.0
  0
LINE
  5
142
330
1F
100
AcDbEntity
  8
0
  6
Continuous
 62
     7
370
    25
100
AcDbLine
 10
-6.875
 20
43.05
 30
0.0
 11
-6.875
 21
42.0
 31
0.0
  0
LINE
  5
143
330
1F
100
AcDbEntity
  8
0
  6
Continuous
 62
     7
370
    25
100
AcDbLine
 10
-7.8930632301
 20
43.3
 30
0.0
 11
-7.8930632301
 21
43.5282110643
 31
0.0
  0
LINE
  5
144
330
1F
100
AcDbEntity
  8
0
  6
Continuous
 62
     7
370
    25
100
AcDbLine
 10
-12.6069367699
 20
43.3
 30
0.0
 11
-12.6069367699
 21
43.5282110643
 31
0.0
  0
LINE
  5
145
330
1F
100
AcDbEntity
  8
0
  6
Continuous
 62
     7
370
    25
100
AcDbLine
 10
-12.6069367699
 20
43.5282110643
 30
0.0
 11
-7.8930632301
 21
43.5282110643
 31
0.0
  0
LINE
  5
146
330
1F
100
AcDbEntity
  8
0
  6
Continuous
 62
     7
370
    25
100
AcDbLine
 10
-12.3168797589
 20
46.8435778714
 30
0.0
 11
-12.6069367699
 21
43.5282110643
 31
0.0
  0
LINE
  5
147
330
1F
100
AcDbEntity
  8
0
  6
Continuous
 62
     7
370
    25
100
AcDbLine
 10
-13.105034119
 20
43.5282110643
 30
0.0
 11
-12.8149771079
 21
46.8435778714
 31
0.0
  0
LINE
  5
148
330
1F
100
AcDbEntity
  8
0
  6
Continuous
 62
     7
370
    25
100
AcDbLine
 10
-7.6850228921
 20
46.8435778714
 30
0.0
 11
-7.394965881
 21
43.5282110643
 31
0.0
  0
LINE
  5
149
330
1F
100
AcDbEntity
  8
0
  6
Continuous
 62
     7
370
    25
100
AcDbLine
 10
-7.8930632301
 20
43.5282110643
 30
0.0
 11
-8.1831202411
 21
46.8435778714
 31
0.0
  0
LINE
  5
14A
330
1F
100
AcDbEntity
  8
0
  6
Continuous
 62
     7
370
    25
100
AcDbLine
 10
-8.1831202411
 20
46.8435778714
 30
0.0
 11
-12.3168797589
 21
46.8435778714
 31
0.0
  0
LINE
  5
14B
330
1F
100
AcDbEntity
  8
0
  6
Continuous
 62
     7
370
    25
100
AcDbLine
 10
-12.3168797589
 20
47.3
 30
0.0
 11
-12.3168797589
 21
46.8435778714
 31
0.0
  0
LINE
  5
14C
330
1F
100
AcDbEntity
  8
0
  6
Continuous
 62
     7
370
    25
100
AcDbLine
 10
-12.3168797589
 20
47.3
 30
0.0
 11
-8.1831202411
 21
47.3
 31
0.0
  0
LINE
  5
14D
330
1F
100
AcDbEntity
  8
0
  6
Continuous
 62
     7
370
    25
100
AcDbLine
 10
-8.1831202411
 20
46.8435778714
 30
0.0
 11
-8.1831202411
 21
47.3
 31
0.0
  0
LINE
  5
14E
330
1F
100
AcDbEntity
  8
0
  6
Continuous
 62
     7
370
    25
100
AcDbLine
 10
-20.5
 20
42.0
 30
0.0
 11
-20.0
 21
42.0
 31
0.0
  0
LINE
  5
14F
330
1F
100
AcDbEntity
  8
0
  6
Continuous
 62
     7
370
    25
100
AcDbLine
 10
-20.5
 20
0.0
 30
0.0
 11
-20.0
 21
0.0
 31
0.0
  0
LINE
  5
150
330
1F
100
AcDbEntity
  8
0
  6
Continuous
 62
     7
370
    25
100
AcDbLine
 10
0.0
 20
0.0
 30
0.0
 11
-0.5
 21
0.0
 31
0.0
  0
LINE
  5
151
330
1F
100
AcDbEntity
  8
0
  6
Continuous
 62
     7
370
    25
100
AcDbLine
 10
0.0
 20
42.0
 30
0.0
 11
-0.5
 21
42.0
 31
0.0
  0
LINE
  5
152
330
1F
100
AcDbEntity
  8
0
  6
Continuous
 62
     7
370
    25
100
AcDbLine
 10
-2.0
 20
-0.5
 30
0.0
 11
-18.5
 21
-0.5
 31
0.0
  0
LINE
  5
153
330
1F
100
AcDbEntity
  8
0
  6
Continuous
 62
     7
370
    25
100
AcDbLine
 10
-20.0
 20
48.875
 30
0.0
 11
-20.0
 21
42.0
 31
0.0
  0
LINE
  5
154
330
1F
100
AcDbEntity
  8
0
  6
Continuous
 62
     7
370
    25
100
AcDbLine
 10
-17.0
 20
-5.5231473006
 30
0.0
 11
-16.6728971963
 21
-5.1449889267
 31
0.0
  0
LINE
  5
155
330
1F
100
AcDbEntity
  8
0
  6
Continuous
 62
     7
370
    25
100
AcDbLine
 10
-17.0
 20
-5.5231473006
 30
0.0
 11
-16.5
 21
-5.5231473006
 31
0.0
  0
LINE
  5
156
330
1F
100
AcDbEntity
  8
0
  6
Continuous
 62
     7
370
    25
100
AcDbLine
 10
-4.0
 20
-6.375
 30
0.0
 11
0.0
 21
-6.375
 31
0.0
  0
LINE
  5
157
330
1F
100
AcDbEntity
  8
0
  6
Continuous
 62
     7
370
    25
100
AcDbLine
 10
-3.5
 20
-5.5231473006
 30
0.0
 11
-3.5
 21
-6.875
 31
0.0
  0
LINE
  5
158
330
1F
100
AcDbEntity
  8
0
  6
Continuous
 62
     7
370
    25
100
AcDbLine
 10
-7.0
 20
-6.875
 30
0.0
 11
-7.0
 21
-5.5231473006
 31
0.0
  0
LINE
  5
159
330
1F
100
AcDbEntity
  8
0
  6
Continuous
 62
     7
370
    25
100
AcDbLine
 10
-14.0
 20
-6.375
 30
0.0
 11
-6.5
 21
-6.375
 31
0.0
  0
LINE
  5
15A
330
1F
100
AcDbEntity
  8
0
  6
Continuous
 62
     7
370
    25
100
AcDbLine
 10
-13.5
 20
-5.5231473006
 30
0.0
 11
-13.5
 21
-6.875
 31
0.0
  0
LINE
  5
15B
330
1F
100
AcDbEntity
  8
0
  6
Continuous
 62
     7
370
    25
100
AcDbLine
 10
-17.0
 20
-6.875
 30
0.0
 11
-17.0
 21
-5.5231473006
 31
0.0
  0
LINE
  5
15C
330
1F
100
AcDbEntity
  8
0
  6
Continuous
 62
     7
370
    25
100
AcDbLine
 10
-20.5
 20
-6.375
 30
0.0
 11
-16.5
 21
-6.375
 31
0.0
  0
LINE
  5
15D
330
1F
100
AcDbEntity
  8
0
  6
Continuous
 62
     7
370
    25
100
AcDbLine
 10
-20.0
 20
0.0
 30
0.0
 11
-20.0
 21
-6.875
 31
0.0
  0
LINE
  5
15E
330
1F
100
AcDbEntity
  8
0
  6
Continuous
 62
     7
370
    25
100
AcDbLine
 10
-0.5
 20
-6.875
 30
0.0
 11
-0.5
 21
0.0
 31
0.0
  0
LINE
  5
15F
330
1F
100
AcDbEntity
  8
0
  6
Continuous
 62
     7
370
    25
100
AcDbLine
 10
-17.0
 20
-6.875
 30
0.0
 11
-20.0
 21
-6.875
 31
0.0
  0
LINE
  5
160
330
1F
100
AcDbEntity
  8
0
  6
Continuous
 62
     7
370
    25
100
AcDbLine
 10
-17.0
 20
47.5231473006
 30
0.0
 11
-16.5
 21
47.5231473006
 31
0.0
  0
LINE
  5
161
330
1F
100
AcDbEntity
  8
0
  6
Continuous
 62
     7
370
    25
100
AcDbLine
 10
-17.0
 20
47.5231473006
 30
0.0
 11
-16.6728971963
 21
47.1449889267
 31
0.0
  0
LINE
  5
162
330
1F
100
AcDbEntity
  8
0
  6
Continuous
 62
     7
370
    25
100
AcDbLine
 10
-13.5
 20
47.5231473006
 30
0.0
 11
-13.8271028037
 21
47.1449889267
 31
0.0
  0
LINE
  5
163
330
1F
100
AcDbEntity
  8
0
  6
Continuous
 62
     7
370
    25
100
AcDbLine
 10
-13.5
 20
-5.5231473006
 30
0.0
 11
-13.8271028037
 21
-5.1449889267
 31
0.0
  0
LINE
  5
164
330
1F
100
AcDbEntity
  8
0
  6
Continuous
 62
     7
370
    25
100
AcDbLine
 10
-17.0
 20
47.5231473006
 30
0.0
 11
-17.0
 21
48.875
 31
0.0
  0
LINE
  5
165
330
1F
100
AcDbEntity
  8
0
  6
Continuous
 62
     7
370
    25
100
AcDbLine
 10
-16.5
 20
48.375
 30
0.0
 11
-20.5
 21
48.375
 31
0.0
  0
LINE
  5
166
330
1F
100
AcDbEntity
  8
0
  6
Continuous
 62
     7
370
    25
100
AcDbLine
 10
-16.5
 20
48.375
 30
0.0
 11
-16.5
 21
47.5231473006
 31
0.0
  0
LINE
  5
167
330
1F
100
AcDbEntity
  8
0
  6
Continuous
 62
     7
370
    25
100
AcDbLine
 10
-20.0
 20
48.875
 30
0.0
 11
-17.0
 21
48.875
 31
0.0
  0
LINE
  5
168
330
1F
100
AcDbEntity
  8
0
  6
Continuous
 62
     7
370
    25
100
AcDbLine
 10
-6.5
 20
48.375
 30
0.0
 11
-14.0
 21
48.375
 31
0.0
  0
LINE
  5
169
330
1F
100
AcDbEntity
  8
0
  6
Continuous
 62
     7
370
    25
100
AcDbLine
 10
-7.0
 20
47.5231473006
 30
0.0
 11
-7.0
 21
48.875
 31
0.0
  0
LINE
  5
16A
330
1F
100
AcDbEntity
  8
0
  6
Continuous
 62
     7
370
    25
100
AcDbLine
 10
-3.5
 20
48.875
 30
0.0
 11
-3.5
 21
47.5231473006
 31
0.0
  0
LINE
  5
16B
330
1F
100
AcDbEntity
  8
0
  6
Continuous
 62
     7
370
    25
100
AcDbLine
 10
0.0
 20
48.375
 30
0.0
 11
-4.0
 21
48.375
 31
0.0
  0
LINE
  5
16C
330
1F
100
AcDbEntity
  8
0
  6
Continuous
 62
     7
370
    25
100
AcDbLine
 10
-0.5
 20
42.0
 30
0.0
 11
-0.5
 21
48.875
 31
0.0
  0
LINE
  5
16D
330
1F
100
AcDbEntity
  8
0
  6
Continuous
 62
     7
370
    25
100
AcDbLine
 10
-13.5
 20
48.875
 30
0.0
 11
-13.5
 21
47.5231473006
 31
0.0
  0
LINE
  5
16E
330
1F
100
AcDbEntity
  8
0
  6
Continuous
 62
     7
370
    25
100
AcDbLine
 10
-13.5
 20
-5.5231473006
 30
0.0
 11
-14.0
 21
-5.5231473006
 31
0.0
  0
LINE
  5
16F
330
1F
100
AcDbEntity
  8
0
  6
Continuous
 62
     7
370
    25
100
AcDbLine
 10
-14.0
 20
-6.375
 30
0.0
 11
-14.0
 21
-5.5231473006
 31
0.0
  0
LINE
  5
170
330
1F
100
AcDbEntity
  8
0
  6
Continuous
 62
     7
370
    25
100
AcDbLine
 10
-20.5
 20
-6.375
 30
0.0
 11
-20.5
 21
0.0
 31
0.0
  0
LINE
  5
171
330
1F
100
AcDbEntity
  8
0
  6
Continuous
 62
     7
370
    25
100
AcDbLine
 10
-20.5
 20
42.0
 30
0.0
 11
-20.5
 21
48.375
 31
0.0
  0
LINE
  5
172
330
1F
100
AcDbEntity
  8
0
  6
Continuous
 62
     7
370
    25
100
AcDbLine
 10
-13.5
 20
47.5231473006
 30
0.0
 11
-14.0
 21
47.5231473006
 31
0.0
  0
LINE
  5
173
330
1F
100
AcDbEntity
  8
0
  6
Continuous
 62
     7
370
    25
100
AcDbLine
 10
-16.5
 20
-5.5231473006
 30
0.0
 11
-16.5
 21
-6.375
 31
0.0
  0
LINE
  5
174
330
1F
100
AcDbEntity
  8
0
  6
Continuous
 62
     7
370
    25
100
AcDbLine
 10
-7.0
 20
-5.5231473006
 30
0.0
 11
-6.5
 21
-5.5231473006
 31
0.0
  0
LINE
  5
175
330
1F
100
AcDbEntity
  8
0
  6
Continuous
 62
     7
370
    25
100
AcDbLine
 10
-6.5
 20
-5.5231473006
 30
0.0
 11
-6.5
 21
-6.375
 31
0.0
  0
LINE
  5
176
330
1F
100
AcDbEntity
  8
0
  6
Continuous
 62
     7
370
    25
100
AcDbLine
 10
-14.0
 20
47.5231473006
 30
0.0
 11
-14.0
 21
48.375
 31
0.0
  0
LINE
  5
177
330
1F
100
AcDbEntity
  8
0
  6
Continuous
 62
     7
370
    25
100
AcDbLine
 10
-7.0
 20
47.5231473006
 30
0.0
 11
-6.5
 21
47.5231473006
 31
0.0
  0
LINE
  5
178
330
1F
100
AcDbEntity
  8
0
  6
Continuous
 62
     7
370
    25
100
AcDbLine
 10
-7.0
 20
47.5231473006
 30
0.0
 11
-6.6728971963
 21
47.1449889267
 31
0.0
  0
LINE
  5
179
330
1F
100
AcDbEntity
  8
0
  6
Continuous
 62
     7
370
    25
100
AcDbLine
 10
-6.5
 20
48.375
 30
0.0
 11
-6.5
 21
47.5231473006
 31
0.0
  0
LINE
  5
17A
330
1F
100
AcDbEntity
  8
0
  6
Continuous
 62
     7
370
    25
100
AcDbLine
 10
-7.0
 20
-5.5231473006
 30
0.0
 11
-6.6728971963
 21
-5.1449889267
 31
0.0
  0
LINE
  5
17B
330
1F
100
AcDbEntity
  8
0
  6
Continuous
 62
     7
370
    25
100
AcDbLine
 10
-3.5
 20
47.5231473006
 30
0.0
 11
-3.8271028037
 21
47.1449889267
 31
0.0
  0
LINE
  5
17C
330
1F
100
AcDbEntity
  8
0
  6
Continuous
 62
     7
370
    25
100
AcDbLine
 10
-13.5
 20
48.875
 30
0.0
 11
-7.0
 21
48.875
 31
0.0
  0
LINE
  5
17D
330
1F
100
AcDbEntity
  8
0
  6
Continuous
 62
     7
370
    25
100
AcDbLine
 10
-7.0
 20
-6.875
 30
0.0
 11
-13.5
 21
-6.875
 31
0.0
  0
LINE
  5
17E
330
1F
100
AcDbEntity
  8
0
  6
Continuous
 62
     7
370
    25
100
AcDbLine
 10
-3.5
 20
-5.5231473006
 30
0.0
 11
-3.8271028037
 21
-5.1449889267
 31
0.0
  0
LINE
  5
17F
330
1F
100
AcDbEntity
  8
0
  6
Continuous
 62
     7
370
    25
100
AcDbLine
 10
-4.0
 20
-6.375
 30
0.0
 11
-4.0
 21
-5.5231473006
 31
0.0
  0
LINE
  5
180
330
1F
100
AcDbEntity
  8
0
  6
Continuous
 62
     7
370
    25
100
AcDbLine
 10
-3.5
 20
-5.5231473006
 30
0.0
 11
-4.0
 21
-5.5231473006
 31
0.0
  0
LINE
  5
181
330
1F
100
AcDbEntity
  8
0
  6
Continuous
 62
     7
370
    25
100
AcDbLine
 10
-3.5
 20
47.5231473006
 30
0.0
 11
-4.0
 21
47.5231473006
 31
0.0
  0
LINE
  5
182
330
1F
100
AcDbEntity
  8
0
  6
Continuous
 62
     7
370
    25
100
AcDbLine
 10
-4.0
 20
47.5231473006
 30
0.0
 11
-4.0
 21
48.375
 31
0.0
  0
LINE
  5
183
330
1F
100
AcDbEntity
  8
0
  6
Continuous
 62
     7
370
    25
100
AcDbLine
 10
-0.5
 20
-6.875
 30
0.0
 11
-3.5
 21
-6.875
 31
0.0
  0
LINE
  5
184
330
1F
100
AcDbEntity
  8
0
  6
Continuous
 62
     7
370
    25
100
AcDbLine
 10
0.0
 20
48.375
 30
0.0
 11
0.0
 21
42.0
 31
0.0
  0
LINE
  5
185
330
1F
100
AcDbEntity
  8
0
  6
Continuous
 62
     7
370
    25
100
AcDbLine
 10
-3.5
 20
48.875
 30
0.0
 11
-0.5
 21
48.875
 31
0.0
  0
LINE
  5
186
330
1F
100
AcDbEntity
  8
0
  6
Continuous
 62
     7
370
    25
100
AcDbLine
 10
0.0
 20
0.0
 30
0.0
 11
0.0
 21
-6.375
 31
0.0
  0
LINE
  5
187
330
1F
100
AcDbEntity
  8
0
  6
Continuous
 62
     8
370
    25
100
AcDbLine
 10
-18.5
 20
42.5
 30
0.0
 11
-13.625
 21
42.5
 31
0.0
  0
LINE
  5
188
330
1F
100
AcDbEntity
  8
0
  6
Continuous
 62
     8
370
    25
100
AcDbLine
 10
-6.875
 20
42.5
 30
0.0
 11
-2.0
 21
42.5
 31
0.0
  0
ARC
  5
189
330
1F
100
AcDbEntity
  8
0
  6
Continuous
 62
     7
370
    25
100
AcDbCircle
 10
-2.0
 20
2.0
 30
0.0
 40
1.5
100
AcDbArc
 50
270.0
 51
0.0
  0
ARC
  5
18A
330
1F
100
AcDbEntity
  8
0
  6
Continuous
 62
     7
370
    25
100
AcDbCircle
 10
-18.5
 20
2.0
 30
0.0
 40
1.500000000000004
100
AcDbArc
 50
180.0
 51
270.0
  0
ARC
  5
18B
330
1F
100
AcDbEntity
  8
0
  6
Continuous
 62
     7
370
    25
100
AcDbCircle
 10
-18.5
 20
40.0
 30
0.0
 40
1.499999999999989
100
AcDbArc
 50
90.0
 51
180.0
  0
ARC
  5
18C
330
1F
100
AcDbEntity
  8
0
  6
Continuous
 62
     7
370
    25
100
AcDbCircle
 10
-2.0
 20
40.0
 30
0.0
 40
1.500000000000001
100
AcDbArc
 50
0.0
 51
90.0
  0
ARC
  5
18D
330
1F
100
AcDbEntity
  8
0
  6
Continuous
 62
     7
370
    25
100
AcDbCircle
 10
-18.5
 20
2.0
 30
0.0
 40
1.99999999999999
100
AcDbArc
 50
180.0
 51
270.0
  0
ARC
  5
18E
330
1F
100
AcDbEntity
  8
0
  6
Continuous
 62
     7
370
    25
100
AcDbCircle
 10
-2.0
 20
40.0
 30
0.0
 40
2.0
100
AcDbArc
 50
0.0
 51
90.0
  0
ARC
  5
18F
330
1F
100
AcDbEntity
  8
0
  6
Continuous
 62
     7
370
    25
100
AcDbCircle
 10
-2.0
 20
2.0
 30
0.0
 40
2.000000000000004
100
AcDbArc
 50
270.0
 51
0.0
  0
ARC
  5
190
330
1F
100
AcDbEntity
  8
0
  6
Continuous
 62
     7
370
    25
100
AcDbCircle
 10
-18.5
 20
40.0
 30
0.0
 40
2.0
100
AcDbArc
 50
90.0
 51
180.0
  0
ARC
  5
191
330
1F
100
AcDbEntity
  8
0
  6
Continuous
 62
     7
370
    25
100
AcDbCircle
 10
-13.375
 20
43.05
 30
0.0
 40
0.25
100
AcDbArc
 50
90.0
 51
180.0
  0
ARC
  5
192
330
1F
100
AcDbEntity
  8
0
  6
Continuous
 62
     7
370
    25
100
AcDbCircle
 10
-7.125
 20
43.05
 30
0.0
 40
0.2500000000000018
100
AcDbArc
 50
360.0
 51
90.0
  0
ARC
  5
193
330
1F
100
AcDbEntity
  8
0
  6
Continuous
 62
     7
370
    25
100
AcDbCircle
 10
-7.6440145555
 20
46.3997598053
 30
0.0
 40
2.882328470900718
100
AcDbArc
 50
265.0431556708
 51
274.9568443292
  0
ARC
  5
194
330
1F
100
AcDbEntity
  8
0
  6
Continuous
 62
     7
370
    25
100
AcDbCircle
 10
-7.1459172065
 20
43.55
 30
0.0
 40
0.2500000000000073
100
AcDbArc
 50
185.0
 51
270.0
  0
ARC
  5
195
330
1F
100
AcDbEntity
  8
0
  6
Continuous
 62
     7
370
    25
100
AcDbCircle
 10
-13.3540827935
 20
43.55
 30
0.0
 40
0.2500000000000071
100
AcDbArc
 50
270.0
 51
355.0
  0
ARC
  5
196
330
1F
100
AcDbEntity
  8
0
  6
Continuous
 62
     7
370
    25
100
AcDbCircle
 10
-12.8559854445
 20
46.3997598053
 30
0.0
 40
2.882328470900724
100
AcDbArc
 50
265.0431556708
 51
274.9568443292
  0
ARC
  5
197
330
1F
100
AcDbEntity
  8
0
  6
Continuous
 62
     7
370
    25
100
AcDbCircle
 10
-12.5659284334
 20
45.4021522064
 30
0.0
 40
1.462782687162621
100
AcDbArc
 50
80.1972507075
 51
99.8027492925
  0
ARC
  5
198
330
1F
100
AcDbEntity
  8
0
  6
Continuous
 62
     7
370
    25
100
AcDbCircle
 10
-7.9340715666
 20
45.4021522064
 30
0.0
 40
1.462782687162649
100
AcDbArc
 50
80.1972507075
 51
99.8027492925
  0
ARC
  5
199
330
1F
100
AcDbEntity
  8
0
  6
Continuous
 62
     7
370
    25
100
AcDbCircle
 10
-12.3168797589
 20
46.8
 30
0.0
 40
0.5000000000000071
100
AcDbArc
 50
90.0
 51
175.0
  0
ARC
  5
19A
330
1F
100
AcDbEntity
  8
0
  6
Continuous
 62
     7
370
    25
100
AcDbCircle
 10
-8.1831202411
 20
46.8
 30
0.0
 40
0.5000000000000071
100
AcDbArc
 50
5.0
 51
90.0
  0
ARC
  5
19B
330
1F
100
AcDbEntity
  8
0
  6
Continuous
 62
     7
370
    25
100
AcDbCircle
 10
-18.5
 20
40.0
 30
0.0
 40
2.499999999999908
100
AcDbArc
 50
90.0
 51
126.8698976458
  0
ARC
  5
19C
330
1F
100
AcDbEntity
  8
0
  6
Continuous
 62
     7
370
    25
100
AcDbCircle
 10
-18.5
 20
2.0
 30
0.0
 40
2.500000000000152
100
AcDbArc
 50
233.1301023542
 51
270.0
  0
ARC
  5
19D
330
1F
100
AcDbEntity
  8
0
  6
Continuous
 62
     7
370
    25
100
AcDbCircle
 10
-2.0
 20
2.0
 30
0.0
 40
2.499999999999834
100
AcDbArc
 50
270.0
 51
306.8698976458
  0
ARC
  5
19E
330
1F
100
AcDbEntity
  8
0
  6
Continuous
 62
     7
370
    25
100
AcDbCircle
 10
-2.0
 20
40.0
 30
0.0
 40
2.499999999999979
100
AcDbArc
 50
53.1301023542
 51
90.0
  0
ARC
  5
19F
330
1F
100
AcDbEntity
  8
0
  6
Continuous
 62
     7
370
    25
100
AcDbCircle
 10
-20.0
 20
48.375
 30
0.0
 40
0.4999999999999929
100
AcDbArc
 50
90.0
 51
180.0
  0
ARC
  5
1A0
330
1F
100
AcDbEntity
  8
0
  6
Continuous
 62
     7
370
    25
100
AcDbCircle
 10
-17.0
 20
-5.5231473006
 30
0.0
 40
0.5000000000000071
100
AcDbArc
 50
0.0
 51
49.1405576795
  0
ARC
  5
1A1
330
1F
100
AcDbEntity
  8
0
  6
Continuous
 62
     7
370
    25
100
AcDbCircle
 10
-5.25
 20
-3.5
 30
0.0
 40
2.674999999999996
100
AcDbArc
 50
310.8594423205
 51
229.1405576795
  0
ARC
  5
1A2
330
1F
100
AcDbEntity
  8
0
  6
Continuous
 62
     7
370
    25
100
AcDbCircle
 10
-15.25
 20
-3.5
 30
0.0
 40
2.674999999999998
100
AcDbArc
 50
310.8594423205
 51
229.1405576795
  0
ARC
  5
1A3
330
1F
100
AcDbEntity
  8
0
  6
Continuous
 62
     7
370
    25
100
AcDbCircle
 10
-17.0
 20
47.5231473006
 30
0.0
 40
0.5000000000000355
100
AcDbArc
 50
310.8594423205
 51
360.0
  0
ARC
  5
1A4
330
1F
100
AcDbEntity
  8
0
  6
Continuous
 62
     7
370
    25
100
AcDbCircle
 10
-20.0
 20
-6.375
 30
0.0
 40
0.5
100
AcDbArc
 50
180.0
 51
270.0
  0
ARC
  5
1A5
330
1F
100
AcDbEntity
  8
0
  6
Continuous
 62
     7
370
    25
100
AcDbCircle
 10
-15.25
 20
45.5
 30
0.0
 40
2.174999999999992
100
AcDbArc
 50
130.8594423205
 51
49.1405576795
  0
ARC
  5
1A6
330
1F
100
AcDbEntity
  8
0
  6
Continuous
 62
     7
370
    25
100
AcDbCircle
 10
-15.25
 20
-3.5
 30
0.0
 40
2.174999999999994
100
AcDbArc
 50
310.8594423205
 51
229.1405576795
  0
ARC
  5
1A7
330
1F
100
AcDbEntity
  8
0
  6
Continuous
 62
     7
370
    25
100
AcDbCircle
 10
-17.0
 20
-6.375
 30
0.0
 40
0.5000000000000036
100
AcDbArc
 50
270.0
 51
0.0
  0
ARC
  5
1A8
330
1F
100
AcDbEntity
  8
0
  6
Continuous
 62
     7
370
    25
100
AcDbCircle
 10
-13.5
 20
-5.5231473006
 30
0.0
 40
0.4999999999999896
100
AcDbArc
 50
130.8594423205
 51
180.0
  0
ARC
  5
1A9
330
1F
100
AcDbEntity
  8
0
  6
Continuous
 62
     7
370
    25
100
AcDbCircle
 10
-17.0
 20
48.375
 30
0.0
 40
0.4999999999999964
100
AcDbArc
 50
0.0
 51
90.0
  0
ARC
  5
1AA
330
1F
100
AcDbEntity
  8
0
  6
Continuous
 62
     7
370
    25
100
AcDbCircle
 10
-13.5
 20
47.5231473006
 30
0.0
 40
0.50000000000003
100
AcDbArc
 50
180.0
 51
229.1405576795
  0
ARC
  5
1AB
330
1F
100
AcDbEntity
  8
0
  6
Continuous
 62
     7
370
    25
100
AcDbCircle
 10
-13.5
 20
-6.375
 30
0.0
 40
0.5
100
AcDbArc
 50
180.0
 51
270.0
  0
ARC
  5
1AC
330
1F
100
AcDbEntity
  8
0
  6
Continuous
 62
     7
370
    25
100
AcDbCircle
 10
-7.0
 20
47.5231473006
 30
0.0
 40
0.5000000000000044
100
AcDbArc
 50
310.8594423205
 51
0.0
  0
ARC
  5
1AD
330
1F
100
AcDbEntity
  8
0
  6
Continuous
 62
     7
370
    25
100
AcDbCircle
 10
-7.0
 20
-5.5231473006
 30
0.0
 40
0.4999999999999902
100
AcDbArc
 50
0.0
 51
49.1405576795
  0
ARC
  5
1AE
330
1F
100
AcDbEntity
  8
0
  6
Continuous
 62
     7
370
    25
100
AcDbCircle
 10
-7.0
 20
-6.375
 30
0.0
 40
0.4999999999999991
100
AcDbArc
 50
270.0
 51
0.0
  0
ARC
  5
1AF
330
1F
100
AcDbEntity
  8
0
  6
Continuous
 62
     7
370
    25
100
AcDbCircle
 10
-5.25
 20
45.5
 30
0.0
 40
2.174999999999993
100
AcDbArc
 50
130.8594423205
 51
49.1405576795
  0
ARC
  5
1B0
330
1F
100
AcDbEntity
  8
0
  6
Continuous
 62
     7
370
    25
100
AcDbCircle
 10
-7.0
 20
48.375
 30
0.0
 40
0.4999999999999938
100
AcDbArc
 50
0.0
 51
90.0
  0
ARC
  5
1B1
330
1F
100
AcDbEntity
  8
0
  6
Continuous
 62
     7
370
    25
100
AcDbCircle
 10
-13.5
 20
48.375
 30
0.0
 40
0.4999999999999947
100
AcDbArc
 50
90.0
 51
180.0
  0
ARC
  5
1B2
330
1F
100
AcDbEntity
  8
0
  6
Continuous
 62
     7
370
    25
100
AcDbCircle
 10
-5.25
 20
-3.5
 30
0.0
 40
2.174999999999993
100
AcDbArc
 50
310.8594423205
 51
229.1405576795
  0
ARC
  5
1B3
330
1F
100
AcDbEntity
  8
0
  6
Continuous
 62
     7
370
    25
100
AcDbCircle
 10
-3.5
 20
-6.375
 30
0.0
 40
0.4999999999999996
100
AcDbArc
 50
180.0
 51
270.0
  0
ARC
  5
1B4
330
1F
100
AcDbEntity
  8
0
  6
Continuous
 62
     7
370
    25
100
AcDbCircle
 10
-3.5
 20
48.375
 30
0.0
 40
0.4999999999999933
100
AcDbArc
 50
90.0
 51
180.0
  0
ARC
  5
1B5
330
1F
100
AcDbEntity
  8
0
  6
Continuous
 62
     7
370
    25
100
AcDbCircle
 10
-3.5
 20
47.5231473006
 30
0.0
 40
0.5000000000000064
100
AcDbArc
 50
180.0
 51
229.1405576795
  0
ARC
  5
1B6
330
1F
100
AcDbEntity
  8
0
  6
Continuous
 62
     7
370
    25
100
AcDbCircle
 10
-0.5
 20
-6.375
 30
0.0
 40
0.4999999999999996
100
AcDbArc
 50
270.0
 51
0.0
  0
ARC
  5
1B7
330
1F
100
AcDbEntity
  8
0
  6
Continuous
 62
     7
370
    25
100
AcDbCircle
 10
-0.5
 20
48.375
 30
0.0
 40
0.4999999999999936
100
AcDbArc
 50
0.0
 51
90.0
  0
ARC
  5
1B8
330
1F
100
AcDbEntity
  8
0
  6
Continuous
 62
     7
370
    25
100
AcDbCircle
 10
-3.5
 20
-5.5231473006
 30
0.0
 40
0.4999999999999997
100
AcDbArc
 50
130.8594423205
 51
180.0
  0
ARC
  5
1B9
330
1F
100
AcDbEntity
  8
0
  6
Continuous
 62
     8
370
    25
100
AcDbCircle
 10
-15.25
 20
45.5
 30
0.0
 40
2.674999999999944
100
AcDbArc
 50
25.3393198987
 51
49.1405576795
  0
ARC
  5
1BA
330
1F
100
AcDbEntity
  8
0
  6
Continuous
 62
     8
370
    25
100
AcDbCircle
 10
-15.25
 20
45.5
 30
0.0
 40
2.674999999999998
100
AcDbArc
 50
130.8594423205
 51
324.6606801013
  0
ARC
  5
1BB
330
1F
100
AcDbEntity
  8
0
  6
Continuous
 62
     8
370
    25
100
AcDbCircle
 10
-5.25
 20
45.5
 30
0.0
 40
2.674999999999995
100
AcDbArc
 50
215.3393198987
 51
49.1405576795
  0
ARC
  5
1BC
330
1F
100
AcDbEntity
  8
0
  6
Continuous
 62
     8
370
    25
100
AcDbCircle
 10
-5.25
 20
45.5
 30
0.0
 40
2.674999999999838
100
AcDbArc
 50
130.8594423205
 51
154.6606801013
  0
SPLINE
  5
1F7
330
1B
100
AcDbEntity
 67
     1
  8
0
  6
Continuous
 62
     7
370
    25
100
AcDbSpline
210
0.0
220
0.0
230
1.0
 70
     8
 71
     3
 72
    14
 73
    10
 74
     0
 42
0.000000001
 43
0.00000001
 40
0.0
 40
0.0
 40
0.0
 40
0.0
 40
0.25
 40
0.25
 40
0.5
 40
0.5
 40
0.75
 40
0.75
 40
1.0
 40
1.0
 40
1.0
 40
1.0
 10
-20.0
 20
42.00000000000001
 30
0.0
 10
-20.0595981800167
 20
41.83113848995269
 30
0.0
 10
-20.12268820702183
 20
41.66579032900015
 30
0.0
 10
-20.2424723300847
 20
41.33766818255388
 30
0.0
 10
-20.29895589629859
 20
41.17484520464441
 30
0.0
 10
-20.3945300673541
 20
40.84479746937957
 30
0.0
 10
-20.43342488453613
 20
40.67793092849678
 30
0.0
 10
-20.48607725024611
 20
40.3414996442433
 30
0.0
 10
-20.50000000000001
 20
40.17043737789404
 30
0.0
 10
-20.5
 20
40.0
 30
0.0
  0
SPLINE
  5
1F8
330
1B
100
AcDbEntity
 67
     1
  8
0
  6
Continuous
 62
     7
370
    25
100
AcDbSpline
210
0.0
220
0.0
230
1.0
 70
    24
 71
     3
 72
    12
 73
     8
 74
     0
 42
0.000000001
 43
0.00000001
 40
0.0
 40
0.0
 40
0.0
 40
0.0
 40
0.2499999999999997
 40
0.2499999999999997
 40
0.4999999999999994
 40
0.4999999999999994
 40
1.0
 40
1.0
 40
1.0
 40
1.0
 10
-20.5
 20
42.00000000000001
 30
0.0
 10
-20.5
 20
41.80784787810757
 30
0.0
 10
-20.5
 20
41.61944055096313
 30
0.0
 10
-20.5
 20
41.25610639085063
 30
0.0
 10
-20.5
 20
41.08516382073366
 30
0.0
 10
-20.5
 20
40.59243541041226
 30
0.0
 10
-20.5
 20
40.29443337892607
 30
0.0
 10
-20.5
 20
40.0
 30
0.0
  0
SPLINE
  5
1F9
330
1B
100
AcDbEntity
 67
     1
  8
0
  6
Continuous
 62
     7
370
    25
100
AcDbSpline
210
0.0
220
0.0
230
1.0
 70
     8
 71
     3
 72
    14
 73
    10
 74
     0
 42
0.000000001
 43
0.00000001
 40
0.0
 40
0.0
 40
0.0
 40
0.0
 40
0.2499999999999999
 40
0.2499999999999999
 40
0.4999999999999998
 40
0.4999999999999998
 40
0.7499999999999999
 40
0.7499999999999999
 40
1.0
 40
1.0
 40
1.0
 40
1.0
 10
-20.0
 20
-0.0000000000000173
 30
0.0
 10
-20.0595981800167
 20
0.1688615100473127
 30
0.0
 10
-20.12268820702183
 20
0.3342096709998549
 30
0.0
 10
-20.2424723300847
 20
0.6623318174461164
 30
0.0
 10
-20.29895589629859
 20
0.825154795355592
 30
0.0
 10
-20.3945300673541
 20
1.15520253062042
 30
0.0
 10
-20.43342488453613
 20
1.322069071503226
 30
0.0
 10
-20.4860772502461
 20
1.658500355756706
 30
0.0
 10
-20.50000000000001
 20
1.829562622105981
 30
0.0
 10
-20.5
 20
2.000000000000002
 30
0.0
  0
SPLINE
  5
1FB
330
1B
100
AcDbEntity
 67
     1
  8
0
  6
Continuous
 62
     7
370
    25
100
AcDbSpline
210
0.0
220
0.0
230
1.0
 70
    24
 71
     3
 72
    12
 73
     8
 74
     0
 42
0.000000001
 43
0.00000001
 40
0.0
 40
0.0
 40
0.0
 40
0.0
 40
0.2500000000000003
 40
0.2500000000000003
 40
0.5000000000000006
 40
0.5000000000000006
 40
1.0
 40
1.0
 40
1.0
 40
1.0
 10
-20.5
 20
-0.0000000000000173
 30
0.0
 10
-20.5
 20
0.1921521218924312
 30
0.0
 10
-20.5
 20
0.3805594490368658
 30
0.0
 10
-20.5
 20
0.7438936091493757
 30
0.0
 10
-20.50000000000001
 20
0.9148361792663331
 30
0.0
 10
-20.5
 20
1.407564589587761
 30
0.0
 10
-20.49999999999999
 20
1.705566621074024
 30
0.0
 10
-20.5
 20
2.000000000000002
 30
0.0
  0
SPLINE
  5
1FD
330
1B
100
AcDbEntity
 67
     1
  8
0
  6
Continuous
 62
     7
370
    25
100
AcDbSpline
210
0.0
220
0.0
230
1.0
 70
     8
 71
     3
 72
    14
 73
    10
 74
     0
 42
0.000000001
 43
0.00000001
 40
0.0
 40
0.0
 40
0.0
 40
0.0
 40
0.2500000000000001
 40
0.2500000000000001
 40
0.5
 40
0.5
 40
0.75
 40
0.75
 40
1.0
 40
1.0
 40
1.0
 40
1.0
 10
-0.5000000000000004
 20
-0.0000000000000173
 30
0.0
 10
-0.4404018199832965
 20
0.1688615100473093
 30
0.0
 10
-0.3773117929781727
 20
0.3342096709998549
 30
0.0
 10
-0.2575276699152939
 20
0.6623318174461129
 30
0.0
 10
-0.2010441037014077
 20
0.8251547953555884
 30
0.0
 10
-0.1054699326459019
 20
1.15520253062042
 30
0.0
 10
-0.0665751154638738
 20
1.322069071503222
 30
0.0
 10
-0.0139227497538957
 20
1.658500355756702
 30
0.0
 10
0.0000000000000017
 20
1.829562622106679
 30
0.0
 10
0.0000000000000017
 20
1.999999999999998
 30
0.0
  0
SPLINE
  5
1FE
330
1B
100
AcDbEntity
 67
     1
  8
0
  6
Continuous
 62
     7
370
    25
100
AcDbSpline
210
0.0
220
0.0
230
1.0
 70
    24
 71
     3
 72
    12
 73
     8
 74
     0
 42
0.000000001
 43
0.00000001
 40
0.0
 40
0.0
 40
0.0
 40
0.0
 40
0.2500000000000003
 40
0.2500000000000003
 40
0.5000000000000007
 40
0.5000000000000007
 40
1.0
 40
1.0
 40
1.0
 40
1.0
 10
0.0
 20
-0.0000000000000173
 30
0.0
 10
0.0
 20
0.1921521218924312
 30
0.0
 10
0.0
 20
0.3805594490368623
 30
0.0
 10
0.0
 20
0.7438936091493722
 30
0.0
 10
0.0
 20
0.9148361792663297
 30
0.0
 10
0.0
 20
1.407564589587761
 30
0.0
 10
0.0
 20
1.705566621075811
 30
0.0
 10
0.0
 20
1.999999999999998
 30
0.0
  0
SPLINE
  5
1FF
330
1B
100
AcDbEntity
 67
     1
  8
0
  6
Continuous
 62
     7
370
    25
100
AcDbSpline
210
0.0
220
0.0
230
1.0
 70
     8
 71
     3
 72
    14
 73
    10
 74
     0
 42
0.000000001
 43
0.00000001
 40
0.0
 40
0.0
 40
0.0
 40
0.0
 40
0.25
 40
0.25
 40
0.5
 40
0.5
 40
0.75
 40
0.75
 40
1.0
 40
1.0
 40
1.0
 40
1.0
 10
-0.5000000000000004
 20
42.00000000000001
 30
0.0
 10
-0.4404018199832965
 20
41.83113848995269
 30
0.0
 10
-0.377311792978171
 20
41.66579032900015
 30
0.0
 10
-0.2575276699152921
 20
41.33766818255388
 30
0.0
 10
-0.201044103701406
 20
41.1748452046444
 30
0.0
 10
-0.1054699326459019
 20
40.84479746937957
 30
0.0
 10
-0.0665751154638738
 20
40.67793092849678
 30
0.0
 10
-0.0139227497538957
 20
40.3414996442433
 30
0.0
 10
0.0000000000000017
 20
40.17043737789336
 30
0.0
 10
0.0000000000000017
 20
40.0
 30
0.0
  0
SPLINE
  5
201
330
1B
100
AcDbEntity
 67
     1
  8
0
  6
Continuous
 62
     7
370
    25
100
AcDbSpline
210
0.0
220
0.0
230
1.0
 70
    24
 71
     3
 72
    12
 73
     8
 74
     0
 42
0.000000001
 43
0.00000001
 40
0.0
 40
0.0
 40
0.0
 40
0.0
 40
0.2500000000000003
 40
0.2500000000000003
 40
0.5000000000000007
 40
0.5000000000000007
 40
1.0
 40
1.0
 40
1.0
 40
1.0
 10
0.0
 20
42.00000000000001
 30
0.0
 10
0.0
 20
41.80784787810756
 30
0.0
 10
0.0
 20
41.61944055096315
 30
0.0
 10
0.0
 20
41.25610639085063
 30
0.0
 10
0.0
 20
41.08516382073368
 30
0.0
 10
0.0
 20
40.59243541041224
 30
0.0
 10
0.0
 20
40.2944333789243
 30
0.0
 10
0.0
 20
40.0
 30
0.0
  0
LINE
  5
277
330
1B
100
AcDbEntity
 67
     1
  8
0
  6
Continuous
 62
     7
370
    25
100
AcDbLine
 10
-0.5
 20
2.0
 30
0.0
 11
-0.5
 21
40.0
 31
0.0
  0
LINE
  5
278
330
1B
100
AcDbEntity
 67
     1
  8
0
  6
Continuous
 62
     7
370
    25
100
AcDbLine
 10
-18.5
 20
0.5
 30
0.0
 11
-2.0
 21
0.5
 31
0.0
  0
LINE
  5
279
330
1B
100
AcDbEntity
 67
     1
  8
0
  6
Continuous
 62
     7
370
    25
100
AcDbLine
 10
-20.0
 20
40.0
 30
0.0
 11
-20.0
 21
2.0
 31
0.0
  0
LINE
  5
27A
330
1B
100
AcDbEntity
 67
     1
  8
0
  6
Continuous
 62
     7
370
    25
100
AcDbLine
 10
-2.0
 20
41.5
 30
0.0
 11
-18.5
 21
41.5
 31
0.0
  0
LINE
  5
27B
330
1B
100
AcDbEntity
 67
     1
  8
0
  6
Continuous
 62
     7
370
    25
100
AcDbLine
 10
-18.5
 20
42.0
 30
0.0
 11
-2.0
 21
42.0
 31
0.0
  0
LINE
  5
27C
330
1B
100
AcDbEntity
 67
     1
  8
0
  6
Continuous
 62
     7
370
    25
100
AcDbLine
 10
-2.0
 20
41.5
 30
0.0
 11
-2.0
 21
42.5
 31
0.0
  0
LINE
  5
27D
330
1B
100
AcDbEntity
 67
     1
  8
0
  6
Continuous
 62
     7
370
    25
100
AcDbLine
 10
-18.5
 20
41.5
 30
0.0
 11
-18.5
 21
42.5
 31
0.0
  0
LINE
  5
27E
330
1B
100
AcDbEntity
 67
     1
  8
0
  6
Continuous
 62
     7
370
    25
100
AcDbLine
 10
-18.5
 20
0.5
 30
0.0
 11
-18.5
 21
-0.5
 31
0.0
  0
LINE
  5
27F
330
1B
100
AcDbEntity
 67
     1
  8
0
  6
Continuous
 62
     7
370
    25
100
AcDbLine
 10
-20.0
 20
2.0
 30
0.0
 11
-20.5
 21
2.0
 31
0.0
  0
LINE
  5
280
330
1B
100
AcDbEntity
 67
     1
  8
0
  6
Continuous
 62
     7
370
    25
100
AcDbLine
 10
0.0
 20
40.0
 30
0.0
 11
-0.5
 21
40.0
 31
0.0
  0
LINE
  5
281
330
1B
100
AcDbEntity
 67
     1
  8
0
  6
Continuous
 62
     7
370
    25
100
AcDbLine
 10
-2.0
 20
0.5
 30
0.0
 11
-2.0
 21
-0.5
 31
0.0
  0
LINE
  5
282
330
1B
100
AcDbEntity
 67
     1
  8
0
  6
Continuous
 62
     7
370
    25
100
AcDbLine
 10
-2.0
 20
0.0
 30
0.0
 11
-18.5
 21
0.0
 31
0.0
  0
LINE
  5
283
330
1B
100
AcDbEntity
 67
     1
  8
0
  6
Continuous
 62
     7
370
    25
100
AcDbLine
 10
0.0
 20
40.0
 30
0.0
 11
0.0
 21
2.0
 31
0.0
  0
LINE
  5
284
330
1B
100
AcDbEntity
 67
     1
  8
0
  6
Continuous
 62
     7
370
    25
100
AcDbLine
 10
0.0
 20
2.0
 30
0.0
 11
-0.5
 21
2.0
 31
0.0
  0
LINE
  5
285
330
1B
100
AcDbEntity
 67
     1
  8
0
  6
Continuous
 62
     7
370
    25
100
AcDbLine
 10
-20.0
 20
40.0
 30
0.0
 11
-20.5
 21
40.0
 31
0.0
  0
LINE
  5
286
330
1B
100
AcDbEntity
 67
     1
  8
0
  6
Continuous
 62
     7
370
    25
100
AcDbLine
 10
-20.5
 20
2.0
 30
0.0
 11
-20.5
 21
40.0
 31
0.0
  0
LINE
  5
287
330
1B
100
AcDbEntity
 67
     1
  8
0
  6
Continuous
 62
     7
370
    25
100
AcDbLine
 10
-6.875
 20
43.05
 30
0.0
 11
-13.625
 21
43.05
 31
0.0
  0
LINE
  5
288
330
1B
100
AcDbEntity
 67
     1
  8
0
  6
Continuous
 62
     7
370
    25
100
AcDbLine
 10
-13.125
 20
43.3
 30
0.0
 11
-13.125
 21
42.0
 31
0.0
  0
LINE
  5
289
330
1B
100
AcDbEntity
 67
     1
  8
0
  6
Continuous
 62
     7
370
    25
100
AcDbLine
 10
-13.375
 20
43.3
 30
0.0
 11
-7.125
 21
43.3
 31
0.0
  0
LINE
  5
28A
330
1B
100
AcDbEntity
 67
     1
  8
0
  6
Continuous
 62
     7
370
    25
100
AcDbLine
 10
-7.375
 20
42.0
 30
0.0
 11
-7.375
 21
43.3
 31
0.0
  0
LINE
  5
28B
330
1B
100
AcDbEntity
 67
     1
  8
0
  6
Continuous
 62
     7
370
    25
100
AcDbLine
 10
-13.625
 20
42.0
 30
0.0
 11
-13.625
 21
43.05
 31
0.0
  0
LINE
  5
28C
330
1B
100
AcDbEntity
 67
     1
  8
0
  6
Continuous
 62
     7
370
    25
100
AcDbLine
 10
-6.875
 20
43.05
 30
0.0
 11
-6.875
 21
42.0
 31
0.0
  0
LINE
  5
28D
330
1B
100
AcDbEntity
 67
     1
  8
0
  6
Continuous
 62
     7
370
    25
100
AcDbLine
 10
-7.8930632301
 20
43.3
 30
0.0
 11
-7.8930632301
 21
43.5282110643
 31
0.0
  0
LINE
  5
28E
330
1B
100
AcDbEntity
 67
     1
  8
0
  6
Continuous
 62
     7
370
    25
100
AcDbLine
 10
-12.6069367699
 20
43.3
 30
0.0
 11
-12.6069367699
 21
43.5282110643
 31
0.0
  0
LINE
  5
28F
330
1B
100
AcDbEntity
 67
     1
  8
0
  6
Continuous
 62
     7
370
    25
100
AcDbLine
 10
-12.6069367699
 20
43.5282110643
 30
0.0
 11
-7.8930632301
 21
43.5282110643
 31
0.0
  0
LINE
  5
290
330
1B
100
AcDbEntity
 67
     1
  8
0
  6
Continuous
 62
     7
370
    25
100
AcDbLine
 10
-12.3168797589
 20
46.8435778714
 30
0.0
 11
-12.6069367699
 21
43.5282110643
 31
0.0
  0
LINE
  5
291
330
1B
100
AcDbEntity
 67
     1
  8
0
  6
Continuous
 62
     7
370
    25
100
AcDbLine
 10
-13.105034119
 20
43.5282110643
 30
0.0
 11
-12.8149771079
 21
46.8435778714
 31
0.0
  0
LINE
  5
292
330
1B
100
AcDbEntity
 67
     1
  8
0
  6
Continuous
 62
     7
370
    25
100
AcDbLine
 10
-7.6850228921
 20
46.8435778714
 30
0.0
 11
-7.394965881
 21
43.5282110643
 31
0.0
  0
LINE
  5
293
330
1B
100
AcDbEntity
 67
     1
  8
0
  6
Continuous
 62
     7
370
    25
100
AcDbLine
 10
-7.8930632301
 20
43.5282110643
 30
0.0
 11
-8.1831202411
 21
46.8435778714
 31
0.0
  0
LINE
  5
294
330
1B
100
AcDbEntity
 67
     1
  8
0
  6
Continuous
 62
     7
370
    25
100
AcDbLine
 10
-8.1831202411
 20
46.8435778714
 30
0.0
 11
-12.3168797589
 21
46.8435778714
 31
0.0
  0
LINE
  5
295
330
1B
100
AcDbEntity
 67
     1
  8
0
  6
Continuous
 62
     7
370
    25
100
AcDbLine
 10
-12.3168797589
 20
47.3
 30
0.0
 11
-12.3168797589
 21
46.8435778714
 31
0.0
  0
LINE
  5
296
330
1B
100
AcDbEntity
 67
     1
  8
0
  6
Continuous
 62
     7
370
    25
100
AcDbLine
 10
-12.3168797589
 20
47.3
 30
0.0
 11
-8.1831202411
 21
47.3
 31
0.0
  0
LINE
  5
297
330
1B
100
AcDbEntity
 67
     1
  8
0
  6
Continuous
 62
     7
370
    25
100
AcDbLine
 10
-8.1831202411
 20
46.8435778714
 30
0.0
 11
-8.1831202411
 21
47.3
 31
0.0
  0
LINE
  5
298
330
1B
100
AcDbEntity
 67
     1
  8
0
  6
Continuous
 62
     7
370
    25
100
AcDbLine
 10
-20.5
 20
42.0
 30
0.0
 11
-20.0
 21
42.0
 31
0.0
  0
LINE
  5
299
330
1B
100
AcDbEntity
 67
     1
  8
0
  6
Continuous
 62
     7
370
    25
100
AcDbLine
 10
-20.5
 20
0.0
 30
0.0
 11
-20.0
 21
0.0
 31
0.0
  0
LINE
  5
29A
330
1B
100
AcDbEntity
 67
     1
  8
0
  6
Continuous
 62
     7
370
    25
100
AcDbLine
 10
0.0
 20
0.0
 30
0.0
 11
-0.5
 21
0.0
 31
0.0
  0
LINE
  5
29B
330
1B
100
AcDbEntity
 67
     1
  8
0
  6
Continuous
 62
     7
370
    25
100
AcDbLine
 10
0.0
 20
42.0
 30
0.0
 11
-0.5
 21
42.0
 31
0.0
  0
LINE
  5
29C
330
1B
100
AcDbEntity
 67
     1
  8
0
  6
Continuous
 62
     7
370
    25
100
AcDbLine
 10
-2.0
 20
-0.5
 30
0.0
 11
-18.5
 21
-0.5
 31
0.0
  0
LINE
  5
29D
330
1B
100
AcDbEntity
 67
     1
  8
0
  6
Continuous
 62
     7
370
    25
100
AcDbLine
 10
-20.0
 20
48.875
 30
0.0
 11
-20.0
 21
42.0
 31
0.0
  0
LINE
  5
29E
330
1B
100
AcDbEntity
 67
     1
  8
0
  6
Continuous
 62
     7
370
    25
100
AcDbLine
 10
-17.0
 20
-5.5231473006
 30
0.0
 11
-16.6728971963
 21
-5.1449889267
 31
0.0
  0
LINE
  5
29F
330
1B
100
AcDbEntity
 67
     1
  8
0
  6
Continuous
 62
     7
370
    25
100
AcDbLine
 10
-17.0
 20
-5.5231473006
 30
0.0
 11
-16.5
 21
-5.5231473006
 31
0.0
  0
LINE
  5
2A0
330
1B
100
AcDbEntity
 67
     1
  8
0
  6
Continuous
 62
     7
370
    25
100
AcDbLine
 10
-4.0
 20
-6.375
 30
0.0
 11
0.0
 21
-6.375
 31
0.0
  0
LINE
  5
2A1
330
1B
100
AcDbEntity
 67
     1
  8
0
  6
Continuous
 62
     7
370
    25
100
AcDbLine
 10
-3.5
 20
-5.5231473006
 30
0.0
 11
-3.5
 21
-6.875
 31
0.0
  0
LINE
  5
2A2
330
1B
100
AcDbEntity
 67
     1
  8
0
  6
Continuous
 62
     7
370
    25
100
AcDbLine
 10
-7.0
 20
-6.875
 30
0.0
 11
-7.0
 21
-5.5231473006
 31
0.0
  0
LINE
  5
2A3
330
1B
100
AcDbEntity
 67
     1
  8
0
  6
Continuous
 62
     7
370
    25
100
AcDbLine
 10
-14.0
 20
-6.375
 30
0.0
 11
-6.5
 21
-6.375
 31
0.0
  0
LINE
  5
2A4
330
1B
100
AcDbEntity
 67
     1
  8
0
  6
Continuous
 62
     7
370
    25
100
AcDbLine
 10
-13.5
 20
-5.5231473006
 30
0.0
 11
-13.5
 21
-6.875
 31
0.0
  0
LINE
  5
2A5
330
1B
100
AcDbEntity
 67
     1
  8
0
  6
Continuous
 62
     7
370
    25
100
AcDbLine
 10
-17.0
 20
-6.875
 30
0.0
 11
-17.0
 21
-5.5231473006
 31
0.0
  0
LINE
  5
2A6
330
1B
100
AcDbEntity
 67
     1
  8
0
  6
Continuous
 62
     7
370
    25
100
AcDbLine
 10
-20.5
 20
-6.375
 30
0.0
 11
-16.5
 21
-6.375
 31
0.0
  0
LINE
  5
2A7
330
1B
100
AcDbEntity
 67
     1
  8
0
  6
Continuous
 62
     7
370
    25
100
AcDbLine
 10
-20.0
 20
0.0
 30
0.0
 11
-20.0
 21
-6.875
 31
0.0
  0
LINE
  5
2A8
330
1B
100
AcDbEntity
 67
     1
  8
0
  6
Continuous
 62
     7
370
    25
100
AcDbLine
 10
-0.5
 20
-6.875
 30
0.0
 11
-0.5
 21
0.0
 31
0.0
  0
LINE
  5
2A9
330
1B
100
AcDbEntity
 67
     1
  8
0
  6
Continuous
 62
     7
370
    25
100
AcDbLine
 10
-17.0
 20
-6.875
 30
0.0
 11
-20.0
 21
-6.875
 31
0.0
  0
LINE
  5
2AA
330
1B
100
AcDbEntity
 67
     1
  8
0
  6
Continuous
 62
     7
370
    25
100
AcDbLine
 10
-17.0
 20
47.5231473006
 30
0.0
 11
-16.5
 21
47.5231473006
 31
0.0
  0
LINE
  5
2AB
330
1B
100
AcDbEntity
 67
     1
  8
0
  6
Continuous
 62
     7
370
    25
100
AcDbLine
 10
-17.0
 20
47.5231473006
 30
0.0
 11
-16.6728971963
 21
47.1449889267
 31
0.0
  0
LINE
  5
2AC
330
1B
100
AcDbEntity
 67
     1
  8
0
  6
Continuous
 62
     7
370
    25
100
AcDbLine
 10
-13.5
 20
47.5231473006
 30
0.0
 11
-13.8271028037
 21
47.1449889267
 31
0.0
  0
LINE
  5
2AD
330
1B
100
AcDbEntity
 67
     1
  8
0
  6
Continuous
 62
     7
370
    25
100
AcDbLine
 10
-13.5
 20
-5.5231473006
 30
0.0
 11
-13.8271028037
 21
-5.1449889267
 31
0.0
  0
LINE
  5
2AE
330
1B
100
AcDbEntity
 67
     1
  8
0
  6
Continuous
 62
     7
370
    25
100
AcDbLine
 10
-17.0
 20
47.5231473006
 30
0.0
 11
-17.0
 21
48.875
 31
0.0
  0
LINE
  5
2AF
330
1B
100
AcDbEntity
 67
     1
  8
0
  6
Continuous
 62
     7
370
    25
100
AcDbLine
 10
-16.5
 20
48.375
 30
0.0
 11
-20.5
 21
48.375
 31
0.0
  0
LINE
  5
2B0
330
1B
100
AcDbEntity
 67
     1
  8
0
  6
Continuous
 62
     7
370
    25
100
AcDbLine
 10
-16.5
 20
48.375
 30
0.0
 11
-16.5
 21
47.5231473006
 31
0.0
  0
LINE
  5
2B1
330
1B
100
AcDbEntity
 67
     1
  8
0
  6
Continuous
 62
     7
370
    25
100
AcDbLine
 10
-20.0
 20
48.875
 30
0.0
 11
-17.0
 21
48.875
 31
0.0
  0
LINE
  5
2B2
330
1B
100
AcDbEntity
 67
     1
  8
0
  6
Continuous
 62
     7
370
    25
100
AcDbLine
 10
-6.5
 20
48.375
 30
0.0
 11
-14.0
 21
48.375
 31
0.0
  0
LINE
  5
2B3
330
1B
100
AcDbEntity
 67
     1
  8
0
  6
Continuous
 62
     7
370
    25
100
AcDbLine
 10
-7.0
 20
47.5231473006
 30
0.0
 11
-7.0
 21
48.875
 31
0.0
  0
LINE
  5
2B4
330
1B
100
AcDbEntity
 67
     1
  8
0
  6
Continuous
 62
     7
370
    25
100
AcDbLine
 10
-3.5
 20
48.875
 30
0.0
 11
-3.5
 21
47.5231473006
 31
0.0
  0
LINE
  5
2B5
330
1B
100
AcDbEntity
 67
     1
  8
0
  6
Continuous
 62
     7
370
    25
100
AcDbLine
 10
0.0
 20
48.375
 30
0.0
 11
-4.0
 21
48.375
 31
0.0
  0
LINE
  5
2B6
330
1B
100
AcDbEntity
 67
     1
  8
0
  6
Continuous
 62
     7
370
    25
100
AcDbLine
 10
-0.5
 20
42.0
 30
0.0
 11
-0.5
 21
48.875
 31
0.0
  0
LINE
  5
2B7
330
1B
100
AcDbEntity
 67
     1
  8
0
  6
Continuous
 62
     7
370
    25
100
AcDbLine
 10
-13.5
 20
48.875
 30
0.0
 11
-13.5
 21
47.5231473006
 31
0.0
  0
LINE
  5
2B8
330
1B
100
AcDbEntity
 67
     1
  8
0
  6
Continuous
 62
     7
370
    25
100
AcDbLine
 10
-13.5
 20
-5.5231473006
 30
0.0
 11
-14.0
 21
-5.5231473006
 31
0.0
  0
LINE
  5
2B9
330
1B
100
AcDbEntity
 67
     1
  8
0
  6
Continuous
 62
     7
370
    25
100
AcDbLine
 10
-14.0
 20
-6.375
 30
0.0
 11
-14.0
 21
-5.5231473006
 31
0.0
  0
LINE
  5
2BA
330
1B
100
AcDbEntity
 67
     1
  8
0
  6
Continuous
 62
     7
370
    25
100
AcDbLine
 10
-20.5
 20
-6.375
 30
0.0
 11
-20.5
 21
0.0
 31
0.0
  0
LINE
  5
2BB
330
1B
100
AcDbEntity
 67
     1
  8
0
  6
Continuous
 62
     7
370
    25
100
AcDbLine
 10
-20.5
 20
42.0
 30
0.0
 11
-20.5
 21
48.375
 31
0.0
  0
LINE
  5
2BC
330
1B
100
AcDbEntity
 67
     1
  8
0
  6
Continuous
 62
     7
370
    25
100
AcDbLine
 10
-13.5
 20
47.5231473006
 30
0.0
 11
-14.0
 21
47.5231473006
 31
0.0
  0
LINE
  5
2BD
330
1B
100
AcDbEntity
 67
     1
  8
0
  6
Continuous
 62
     7
370
    25
100
AcDbLine
 10
-16.5
 20
-5.5231473006
 30
0.0
 11
-16.5
 21
-6.375
 31
0.0
  0
LINE
  5
2BE
330
1B
100
AcDbEntity
 67
     1
  8
0
  6
Continuous
 62
     7
370
    25
100
AcDbLine
 10
-7.0
 20
-5.5231473006
 30
0.0
 11
-6.5
 21
-5.5231473006
 31
0.0
  0
LINE
  5
2BF
330
1B
100
AcDbEntity
 67
     1
  8
0
  6
Continuous
 62
     7
370
    25
100
AcDbLine
 10
-6.5
 20
-5.5231473006
 30
0.0
 11
-6.5
 21
-6.375
 31
0.0
  0
LINE
  5
2C0
330
1B
100
AcDbEntity
 67
     1
  8
0
  6
Continuous
 62
     7
370
    25
100
AcDbLine
 10
-14.0
 20
47.5231473006
 30
0.0
 11
-14.0
 21
48.375
 31
0.0
  0
LINE
  5
2C1
330
1B
100
AcDbEntity
 67
     1
  8
0
  6
Continuous
 62
     7
370
    25
100
AcDbLine
 10
-7.0
 20
47.5231473006
 30
0.0
 11
-6.5
 21
47.5231473006
 31
0.0
  0
LINE
  5
2C2
330
1B
100
AcDbEntity
 67
     1
  8
0
  6
Continuous
 62
     7
370
    25
100
AcDbLine
 10
-7.0
 20
47.5231473006
 30
0.0
 11
-6.6728971963
 21
47.1449889267
 31
0.0
  0
LINE
  5
2C3
330
1B
100
AcDbEntity
 67
     1
  8
0
  6
Continuous
 62
     7
370
    25
100
AcDbLine
 10
-6.5
 20
48.375
 30
0.0
 11
-6.5
 21
47.5231473006
 31
0.0
  0
LINE
  5
2C4
330
1B
100
AcDbEntity
 67
     1
  8
0
  6
Continuous
 62
     7
370
    25
100
AcDbLine
 10
-7.0
 20
-5.5231473006
 30
0.0
 11
-6.6728971963
 21
-5.1449889267
 31
0.0
  0
LINE
  5
2C5
330
1B
100
AcDbEntity
 67
     1
  8
0
  6
Continuous
 62
     7
370
    25
100
AcDbLine
 10
-3.5
 20
47.5231473006
 30
0.0
 11
-3.8271028037
 21
47.1449889267
 31
0.0
  0
LINE
  5
2C6
330
1B
100
AcDbEntity
 67
     1
  8
0
  6
Continuous
 62
     7
370
    25
100
AcDbLine
 10
-13.5
 20
48.875
 30
0.0
 11
-7.0
 21
48.875
 31
0.0
  0
LINE
  5
2C7
330
1B
100
AcDbEntity
 67
     1
  8
0
  6
Continuous
 62
     7
370
    25
100
AcDbLine
 10
-7.0
 20
-6.875
 30
0.0
 11
-13.5
 21
-6.875
 31
0.0
  0
LINE
  5
2C8
330
1B
100
AcDbEntity
 67
     1
  8
0
  6
Continuous
 62
     7
370
    25
100
AcDbLine
 10
-3.5
 20
-5.5231473006
 30
0.0
 11
-3.8271028037
 21
-5.1449889267
 31
0.0
  0
LINE
  5
2C9
330
1B
100
AcDbEntity
 67
     1
  8
0
  6
Continuous
 62
     7
370
    25
100
AcDbLine
 10
-4.0
 20
-6.375
 30
0.0
 11
-4.0
 21
-5.5231473006
 31
0.0
  0
LINE
  5
2CA
330
1B
100
AcDbEntity
 67
     1
  8
0
  6
Continuous
 62
     7
370
    25
100
AcDbLine
 10
-3.5
 20
-5.5231473006
 30
0.0
 11
-4.0
 21
-5.5231473006
 31
0.0
  0
LINE
  5
2CB
330
1B
100
AcDbEntity
 67
     1
  8
0
  6
Continuous
 62
     7
370
    25
100
AcDbLine
 10
-3.5
 20
47.5231473006
 30
0.0
 11
-4.0
 21
47.5231473006
 31
0.0
  0
LINE
  5
2CC
330
1B
100
AcDbEntity
 67
     1
  8
0
  6
Continuous
 62
     7
370
    25
100
AcDbLine
 10
-4.0
 20
47.5231473006
 30
0.0
 11
-4.0
 21
48.375
 31
0.0
  0
LINE
  5
2CD
330
1B
100
AcDbEntity
 67
     1
  8
0
  6
Continuous
 62
     7
370
    25
100
AcDbLine
 10
-0.5
 20
-6.875
 30
0.0
 11
-3.5
 21
-6.875
 31
0.0
  0
LINE
  5
2CE
330
1B
100
AcDbEntity
 67
     1
  8
0
  6
Continuous
 62
     7
370
    25
100
AcDbLine
 10
0.0
 20
48.375
 30
0.0
 11
0.0
 21
42.0
 31
0.0
  0
LINE
  5
2CF
330
1B
100
AcDbEntity
 67
     1
  8
0
  6
Continuous
 62
     7
370
    25
100
AcDbLine
 10
-3.5
 20
48.875
 30
0.0
 11
-0.5
 21
48.875
 31
0.0
  0
LINE
  5
2D0
330
1B
100
AcDbEntity
 67
     1
  8
0
  6
Continuous
 62
     7
370
    25
100
AcDbLine
 10
0.0
 20
0.0
 30
0.0
 11
0.0
 21
-6.375
 31
0.0
  0
LINE
  5
2D1
330
1B
100
AcDbEntity
 67
     1
  8
0
  6
Continuous
 62
     8
370
    25
100
AcDbLine
 10
-18.5
 20
42.5
 30
0.0
 11
-13.625
 21
42.5
 31
0.0
  0
LINE
  5
2D2
330
1B
100
AcDbEntity
 67
     1
  8
0
  6
Continuous
 62
     8
370
    25
100
AcDbLine
 10
-6.875
 20
42.5
 30
0.0
 11
-2.0
 21
42.5
 31
0.0
  0
ARC
  5
2D3
330
1B
100
AcDbEntity
 67
     1
  8
0
  6
Continuous
 62
     7
370
    25
100
AcDbCircle
 10
-2.0
 20
2.0
 30
0.0
 40
1.5
100
AcDbArc
 50
270.0
 51
0.0
  0
ARC
  5
2D4
330
1B
100
AcDbEntity
 67
     1
  8
0
  6
Continuous
 62
     7
370
    25
100
AcDbCircle
 10
-18.5
 20
2.0
 30
0.0
 40
1.500000000000004
100
AcDbArc
 50
180.0
 51
270.0
  0
ARC
  5
2D5
330
1B
100
AcDbEntity
 67
     1
  8
0
  6
Continuous
 62
     7
370
    25
100
AcDbCircle
 10
-18.5
 20
40.0
 30
0.0
 40
1.499999999999989
100
AcDbArc
 50
90.0
 51
180.0
  0
ARC
  5
2D6
330
1B
100
AcDbEntity
 67
     1
  8
0
  6
Continuous
 62
     7
370
    25
100
AcDbCircle
 10
-2.0
 20
40.0
 30
0.0
 40
1.500000000000001
100
AcDbArc
 50
0.0
 51
90.0
  0
ARC
  5
2D7
330
1B
100
AcDbEntity
 67
     1
  8
0
  6
Continuous
 62
     7
370
    25
100
AcDbCircle
 10
-18.5
 20
2.0
 30
0.0
 40
1.99999999999999
100
AcDbArc
 50
180.0
 51
270.0
  0
ARC
  5
2D8
330
1B
100
AcDbEntity
 67
     1
  8
0
  6
Continuous
 62
     7
370
    25
100
AcDbCircle
 10
-2.0
 20
40.0
 30
0.0
 40
2.0
100
AcDbArc
 50
0.0
 51
90.0
  0
ARC
  5
2D9
330
1B
100
AcDbEntity
 67
     1
  8
0
  6
Continuous
 62
     7
370
    25
100
AcDbCircle
 10
-2.0
 20
2.0
 30
0.0
 40
2.000000000000004
100
AcDbArc
 50
270.0
 51
0.0
  0
ARC
  5
2DA
330
1B
100
AcDbEntity
 67
     1
  8
0
  6
Continuous
 62
     7
370
    25
100
AcDbCircle
 10
-18.5
 20
40.0
 30
0.0
 40
2.0
100
AcDbArc
 50
90.0
 51
180.0
  0
ARC
  5
2DB
330
1B
100
AcDbEntity
 67
     1
  8
0
  6
Continuous
 62
     7
370
    25
100
AcDbCircle
 10
-13.375
 20
43.05
 30
0.0
 40
0.25
100
AcDbArc
 50
90.0
 51
180.0
  0
ARC
  5
2DC
330
1B
100
AcDbEntity
 67
     1
  8
0
  6
Continuous
 62
     7
370
    25
100
AcDbCircle
 10
-7.125
 20
43.05
 30
0.0
 40
0.2500000000000018
100
AcDbArc
 50
360.0
 51
90.0
  0
ARC
  5
2DD
330
1B
100
AcDbEntity
 67
     1
  8
0
  6
Continuous
 62
     7
370
    25
100
AcDbCircle
 10
-7.6440145555
 20
46.3997598053
 30
0.0
 40
2.882328470900718
100
AcDbArc
 50
265.0431556708
 51
274.9568443292
  0
ARC
  5
2DE
330
1B
100
AcDbEntity
 67
     1
  8
0
  6
Continuous
 62
     7
370
    25
100
AcDbCircle
 10
-7.1459172065
 20
43.55
 30
0.0
 40
0.2500000000000073
100
AcDbArc
 50
185.0
 51
270.0
  0
ARC
  5
2DF
330
1B
100
AcDbEntity
 67
     1
  8
0
  6
Continuous
 62
     7
370
    25
100
AcDbCircle
 10
-13.3540827935
 20
43.55
 30
0.0
 40
0.2500000000000071
100
AcDbArc
 50
270.0
 51
355.0
  0
ARC
  5
2E0
330
1B
100
AcDbEntity
 67
     1
  8
0
  6
Continuous
 62
     7
370
    25
100
AcDbCircle
 10
-12.8559854445
 20
46.3997598053
 30
0.0
 40
2.882328470900724
100
AcDbArc
 50
265.0431556708
 51
274.9568443292
  0
ARC
  5
2E1
330
1B
100
AcDbEntity
 67
     1
  8
0
  6
Continuous
 62
     7
370
    25
100
AcDbCircle
 10
-12.5659284334
 20
45.4021522064
 30
0.0
 40
1.462782687162621
100
AcDbArc
 50
80.1972507075
 51
99.8027492925
  0
ARC
  5
2E2
330
1B
100
AcDbEntity
 67
     1
  8
0
  6
Continuous
 62
     7
370
    25
100
AcDbCircle
 10
-7.9340715666
 20
45.4021522064
 30
0.0
 40
1.462782687162649
100
AcDbArc
 50
80.1972507075
 51
99.8027492925
  0
ARC
  5
2E3
330
1B
100
AcDbEntity
 67
     1
  8
0
  6
Continuous
 62
     7
370
    25
100
AcDbCircle
 10
-12.3168797589
 20
46.8
 30
0.0
 40
0.5000000000000071
100
AcDbArc
 50
90.0
 51
175.0
  0
ARC
  5
2E4
330
1B
100
AcDbEntity
 67
     1
  8
0
  6
Continuous
 62
     7
370
    25
100
AcDbCircle
 10
-8.1831202411
 20
46.8
 30
0.0
 40
0.5000000000000071
100
AcDbArc
 50
5.0
 51
90.0
  0
ARC
  5
2E5
330
1B
100
AcDbEntity
 67
     1
  8
0
  6
Continuous
 62
     7
370
    25
100
AcDbCircle
 10
-18.5
 20
40.0
 30
0.0
 40
2.499999999999908
100
AcDbArc
 50
90.0
 51
126.8698976458
  0
ARC
  5
2E6
330
1B
100
AcDbEntity
 67
     1
  8
0
  6
Continuous
 62
     7
370
    25
100
AcDbCircle
 10
-18.5
 20
2.0
 30
0.0
 40
2.500000000000152
100
AcDbArc
 50
233.1301023542
 51
270.0
  0
ARC
  5
2E7
330
1B
100
AcDbEntity
 67
     1
  8
0
  6
Continuous
 62
     7
370
    25
100
AcDbCircle
 10
-2.0
 20
2.0
 30
0.0
 40
2.499999999999834
100
AcDbArc
 50
270.0
 51
306.8698976458
  0
ARC
  5
2E8
330
1B
100
AcDbEntity
 67
     1
  8
0
  6
Continuous
 62
     7
370
    25
100
AcDbCircle
 10
-2.0
 20
40.0
 30
0.0
 40
2.499999999999979
100
AcDbArc
 50
53.1301023542
 51
90.0
  0
ARC
  5
2E9
330
1B
100
AcDbEntity
 67
     1
  8
0
  6
Continuous
 62
     7
370
    25
100
AcDbCircle
 10
-20.0
 20
48.375
 30
0.0
 40
0.4999999999999929
100
AcDbArc
 50
90.0
 51
180.0
  0
ARC
  5
2EA
330
1B
100
AcDbEntity
 67
     1
  8
0
  6
Continuous
 62
     7
370
    25
100
AcDbCircle
 10
-17.0
 20
-5.5231473006
 30
0.0
 40
0.5000000000000071
100
AcDbArc
 50
0.0
 51
49.1405576795
  0
ARC
  5
2EB
330
1B
100
AcDbEntity
 67
     1
  8
0
  6
Continuous
 62
     7
370
    25
100
AcDbCircle
 10
-5.25
 20
-3.5
 30
0.0
 40
2.674999999999996
100
AcDbArc
 50
310.8594423205
 51
229.1405576795
  0
ARC
  5
2EC
330
1B
100
AcDbEntity
 67
     1
  8
0
  6
Continuous
 62
     7
370
    25
100
AcDbCircle
 10
-15.25
 20
-3.5
 30
0.0
 40
2.674999999999998
100
AcDbArc
 50
310.8594423205
 51
229.1405576795
  0
ARC
  5
2ED
330
1B
100
AcDbEntity
 67
     1
  8
0
  6
Continuous
 62
     7
370
    25
100
AcDbCircle
 10
-17.0
 20
47.5231473006
 30
0.0
 40
0.5000000000000355
100
AcDbArc
 50
310.8594423205
 51
360.0
  0
ARC
  5
2EE
330
1B
100
AcDbEntity
 67
     1
  8
0
  6
Continuous
 62
     7
370
    25
100
AcDbCircle
 10
-20.0
 20
-6.375
 30
0.0
 40
0.5
100
AcDbArc
 50
180.0
 51
270.0
  0
ARC
  5
2EF
330
1B
100
AcDbEntity
 67
     1
  8
0
  6
Continuous
 62
     7
370
    25
100
AcDbCircle
 10
-15.25
 20
45.5
 30
0.0
 40
2.174999999999992
100
AcDbArc
 50
130.8594423205
 51
49.1405576795
  0
ARC
  5
2F0
330
1B
100
AcDbEntity
 67
     1
  8
0
  6
Continuous
 62
     7
370
    25
100
AcDbCircle
 10
-15.25
 20
-3.5
 30
0.0
 40
2.174999999999994
100
AcDbArc
 50
310.8594423205
 51
229.1405576795
  0
ARC
  5
2F1
330
1B
100
AcDbEntity
 67
     1
  8
0
  6
Continuous
 62
     7
370
    25
100
AcDbCircle
 10
-17.0
 20
-6.375
 30
0.0
 40
0.5000000000000036
100
AcDbArc
 50
270.0
 51
0.0
  0
ARC
  5
2F2
330
1B
100
AcDbEntity
 67
     1
  8
0
  6
Continuous
 62
     7
370
    25
100
AcDbCircle
 10
-13.5
 20
-5.5231473006
 30
0.0
 40
0.4999999999999896
100
AcDbArc
 50
130.8594423205
 51
180.0
  0
ARC
  5
2F3
330
1B
100
AcDbEntity
 67
     1
  8
0
  6
Continuous
 62
     7
370
    25
100
AcDbCircle
 10
-17.0
 20
48.375
 30
0.0
 40
0.4999999999999964
100
AcDbArc
 50
0.0
 51
90.0
  0
ARC
  5
2F4
330
1B
100
AcDbEntity
 67
     1
  8
0
  6
Continuous
 62
     7
370
    25
100
AcDbCircle
 10
-13.5
 20
47.5231473006
 30
0.0
 40
0.50000000000003
100
AcDbArc
 50
180.0
 51
229.1405576795
  0
ARC
  5
2F5
330
1B
100
AcDbEntity
 67
     1
  8
0
  6
Continuous
 62
     7
370
    25
100
AcDbCircle
 10
-13.5
 20
-6.375
 30
0.0
 40
0.5
100
AcDbArc
 50
180.0
 51
270.0
  0
ARC
  5
2F6
330
1B
100
AcDbEntity
 67
     1
  8
0
  6
Continuous
 62
     7
370
    25
100
AcDbCircle
 10
-7.0
 20
47.5231473006
 30
0.0
 40
0.5000000000000044
100
AcDbArc
 50
310.8594423205
 51
0.0
  0
ARC
  5
2F7
330
1B
100
AcDbEntity
 67
     1
  8
0
  6
Continuous
 62
     7
370
    25
100
AcDbCircle
 10
-7.0
 20
-5.5231473006
 30
0.0
 40
0.4999999999999902
100
AcDbArc
 50
0.0
 51
49.1405576795
  0
ARC
  5
2F8
330
1B
100
AcDbEntity
 67
     1
  8
0
  6
Continuous
 62
     7
370
    25
100
AcDbCircle
 10
-7.0
 20
-6.375
 30
0.0
 40
0.4999999999999991
100
AcDbArc
 50
270.0
 51
0.0
  0
ARC
  5
2F9
330
1B
100
AcDbEntity
 67
     1
  8
0
  6
Continuous
 62
     7
370
    25
100
AcDbCircle
 10
-5.25
 20
45.5
 30
0.0
 40
2.174999999999993
100
AcDbArc
 50
130.8594423205
 51
49.1405576795
  0
ARC
  5
2FA
330
1B
100
AcDbEntity
 67
     1
  8
0
  6
Continuous
 62
     7
370
    25
100
AcDbCircle
 10
-7.0
 20
48.375
 30
0.0
 40
0.4999999999999938
100
AcDbArc
 50
0.0
 51
90.0
  0
ARC
  5
2FB
330
1B
100
AcDbEntity
 67
     1
  8
0
  6
Continuous
 62
     7
370
    25
100
AcDbCircle
 10
-13.5
 20
48.375
 30
0.0
 40
0.4999999999999947
100
AcDbArc
 50
90.0
 51
180.0
  0
ARC
  5
2FC
330
1B
100
AcDbEntity
 67
     1
  8
0
  6
Continuous
 62
     7
370
    25
100
AcDbCircle
 10
-5.25
 20
-3.5
 30
0.0
 40
2.174999999999993
100
AcDbArc
 50
310.8594423205
 51
229.1405576795
  0
ARC
  5
2FD
330
1B
100
AcDbEntity
 67
     1
  8
0
  6
Continuous
 62
     7
370
    25
100
AcDbCircle
 10
-3.5
 20
-6.375
 30
0.0
 40
0.4999999999999996
100
AcDbArc
 50
180.0
 51
270.0
  0
ARC
  5
2FE
330
1B
100
AcDbEntity
 67
     1
  8
0
  6
Continuous
 62
     7
370
    25
100
AcDbCircle
 10
-3.5
 20
48.375
 30
0.0
 40
0.4999999999999933
100
AcDbArc
 50
90.0
 51
180.0
  0
ARC
  5
2FF
330
1B
100
AcDbEntity
 67
     1
  8
0
  6
Continuous
 62
     7
370
    25
100
AcDbCircle
 10
-3.5
 20
47.5231473006
 30
0.0
 40
0.5000000000000064
100
AcDbArc
 50
180.0
 51
229.1405576795
  0
ARC
  5
300
330
1B
100
AcDbEntity
 67
     1
  8
0
  6
Continuous
 62
     7
370
    25
100
AcDbCircle
 10
-0.5
 20
-6.375
 30
0.0
 40
0.4999999999999996
100
AcDbArc
 50
270.0
 51
0.0
  0
ARC
  5
301
330
1B
100
AcDbEntity
 67
     1
  8
0
  6
Continuous
 62
     7
370
    25
100
AcDbCircle
 10
-0.5
 20
48.375
 30
0.0
 40
0.4999999999999936
100
AcDbArc
 50
0.0
 51
90.0
  0
ARC
  5
302
330
1B
100
AcDbEntity
 67
     1
  8
0
  6
Continuous
 62
     7
370
    25
100
AcDbCircle
 10
-3.5
 20
-5.5231473006
 30
0.0
 40
0.4999999999999997
100
AcDbArc
 50
130.8594423205
 51
180.0
  0
ARC
  5
303
330
1B
100
AcDbEntity
 67
     1
  8
0
  6
Continuous
 62
     8
370
    25
100
AcDbCircle
 10
-15.25
 20
45.5
 30
0.0
 40
2.674999999999944
100
AcDbArc
 50
25.3393198987
 51
49.1405576795
  0
ARC
  5
304
330
1B
100
AcDbEntity
 67
     1
  8
0
  6
Continuous
 62
     8
370
    25
100
AcDbCircle
 10
-15.25
 20
45.5
 30
0.0
 40
2.674999999999998
100
AcDbArc
 50
130.8594423205
 51
324.6606801013
  0
ARC
  5
305
330
1B
100
AcDbEntity
 67
     1
  8
0
  6
Continuous
 62
     8
370
    25
100
AcDbCircle
 10
-5.25
 20
45.5
 30
0.0
 40
2.674999999999995
100
AcDbArc
 50
215.3393198987
 51
49.1405576795
  0
ARC
  5
306
330
1B
100
AcDbEntity
 67
     1
  8
0
  6
Continuous
 62
     8
370
    25
100
AcDbCircle
 10
-5.25
 20
45.5
 30
0.0
 40
2.674999999999838
100
AcDbArc
 50
130.8594423205
 51
154.6606801013
  0
VIEWPORT
  5
307
330
1B
100
AcDbEntity
 67
     1
  8
0
100
AcDbViewport
 10
0.0
 20
0.0
 30
0.0
 40
205.6
 41
156.0
 68
     1
 69
     1
 12
-10.25
 22
21.0
 13
0.0
 23
0.0
 14
10.0
 24
10.0
 15
10.0
 25
10.0
 16
0.0
 26
0.0
 36
1.0
 17
0.0
 27
0.0
 37
0.0
 42
50.0
 43
0.0
 44
0.0
 45
56.865
 50
0.0
 51
0.0
 72
   100
 90
   557152
  1

281
     0
 71
     1
 74
     0
110
0.0
120
0.0
130
0.0
111
1.0
121
0.0
131
0.0
112
0.0
122
1.0
132
0.0
 79
     0
146
0.0
  0
ENDSEC
  0
SECTION
  2
OBJECTS
  0
DICTIONARY
  5
C
330
0
100
AcDbDictionary
281
     1
  3
ACAD_GROUP
350
D
  3
ACAD_LAYOUT
350
1A
  3
ACAD_MLINESTYLE
350
17
  3
ACAD_PLOTSETTINGS
350
19
  3
ACAD_PLOTSTYLENAME
350
E
  3
ACAD_SCALELIST
350
47
  0
DICTIONARY
  5
D
102
{ACAD_REACTORS
330
C
102
}
330
C
100
AcDbDictionary
281
     1
  0
DICTIONARY
  5
1A
102
{ACAD_REACTORS
330
C
102
}
330
C
100
AcDbDictionary
281
     1
  3
_
350
1E
  3
Layout2
350
26
  3
Model
350
22
  0
DICTIONARY
  5
17
102
{ACAD_REACTORS
330
C
102
}
330
C
100
AcDbDictionary
281
     1
  3
Standard
350
18
  0
DICTIONARY
  5
19
102
{ACAD_REACTORS
330
C
102
}
330
C
100
AcDbDictionary
281
     1
  0
ACDBDICTIONARYWDFLT
  5
E
102
{ACAD_REACTORS
330
C
102
}
330
C
100
AcDbDictionary
281
     1
  3
Normal
350
F
100
AcDbDictionaryWithDefault
340
F
  0
DICTIONARY
  5
47
102
{ACAD_REACTORS
330
C
102
}
330
C
100
AcDbDictionary
281
     1
  3
A0
350
48
  3
A1
350
49
  3
A2
350
4A
  3
A3
350
4B
  3
A4
350
4C
  3
A5
350
4D
  3
A6
350
4E
  3
A7
350
4F
  3
A8
350
50
  3
A9
350
51
  3
B0
350
52
  3
B1
350
53
  3
B2
350
54
  3
B3
350
55
  3
B4
350
56
  3
B5
350
57
  3
B6
350
58
  3
B7
350
59
  3
B8
350
5A
  3
B9
350
5B
  3
C0
350
5C
  3
C1
350
5D
  3
C2
350
5E
  3
C3
350
5F
  3
C4
350
60
  3
C5
350
61
  3
C6
350
62
  3
C7
350
63
  3
C8
350
64
  3
C9
350
65
  3
D0
350
66
  3
D1
350
67
  3
D2
350
68
  0
LAYOUT
  5
1E
102
{ACAD_REACTORS
330
1A
102
}
330
1A
100
AcDbPlotSettings
  1

  2
none_device
  4
ISO_A4_(210.00_x_297.00_MM)
  6

 40
7.5
 41
20.0
 42
7.5
 43
20.0
 44
210.0
 45
297.0
 46
0.0
 47
0.0
 48
0.0
 49
0.0
140
0.0
141
0.0
142
1.0
143
0.2858974359
 70
   688
 72
     1
 73
     1
 74
     1
  7

 75
     0
147
3.4977578475
148
20.5
149
6.875
100
AcDbLayout
  1
_
 70
     1
 71
     1
 10
-26.2179487179
 20
-9.0192307692
 11
58.6935897436
 21
51.0192307692
 12
0.0
 22
0.0
 32
0.0
 14
-20.5
 24
-6.875
 34
0.0
 15
0.0
 25
48.875
 35
0.0
146
0.0
 13
0.0
 23
0.0
 33
0.0
 16
1.0
 26
0.0
 36
0.0
 17
0.0
 27
1.0
 37
0.0
 76
     0
330
1B
331
307
  0
LAYOUT
  5
26
102
{ACAD_REACTORS
330
1A
102
}
330
1A
100
AcDbPlotSettings
  1

  2
none_device
  4

  6

 40
0.0
 41
0.0
 42
0.0
 43
0.0
 44
0.0
 45
0.0
 46
0.0
 47
0.0
 48
0.0
 49
0.0
140
0.0
141
0.0
142
1.0
143
1.0
 70
   688
 72
     1
 73
     0
 74
     5
  7

 75
    16
147
1.0
148
0.0
149
0.0
100
AcDbLayout
  1
Layout2
 70
     1
 71
     2
 10
0.0
 20
0.0
 11
0.0
 21
0.0
 12
0.0
 22
0.0
 32
0.0
 14
0.0
 24
0.0
 34
0.0
 15
0.0
 25
0.0
 35
0.0
146
0.0
 13
0.0
 23
0.0
 33
0.0
 16
1.0
 26
0.0
 36
0.0
 17
0.0
 27
1.0
 37
0.0
 76
     0
330
23
  0
LAYOUT
  5
22
102
{ACAD_REACTORS
330
1A
102
}
330
1A
100
AcDbPlotSettings
  1

  2
none_device
  4
ANSI_A_(11.00_x_8.50_Inches)
  6

 40
6.35
 41
19.05
 42
6.35000508
 43
19.05000254
 44
279.4
 45
215.9
 46
172.6476701057
 47
8.3876937973
 48
0.0
 49
0.0
140
0.0
141
0.0
142
0.150941704
143
1.0
 70
  1696
 72
     0
 73
     0
 74
     0
  7

 75
     0
147
0.0179189148
148
-1300.4909072572
149
0.0
100
AcDbLayout
  1
Model
 70
     1
 71
     0
 10
0.0
 20
0.0
 11
420.0
 21
297.0
 12
0.0
 22
0.0
 32
0.0
 14
-20.5
 24
-6.875
 34
0.0
 15
0.0
 25
48.875
 35
0.0
146
0.0
 13
0.0
 23
0.0
 33
0.0
 16
1.0
 26
0.0
 36
0.0
 17
0.0
 27
1.0
 37
0.0
 76
     0
330
1F
331
29
  0
MLINESTYLE
  5
18
102
{ACAD_REACTORS
330
17
102
}
330
17
100
AcDbMlineStyle
  2
Standard
 70
     0
  3

 62
   256
 51
90.0
 52
90.0
 71
     2
 49
0.5
 62
   256
  6
BYLAYER
 49
-0.5
 62
   256
  6
BYLAYER
  0
ACDBPLACEHOLDER
  5
F
102
{ACAD_REACTORS
330
E
102
}
330
E
  0
SCALE
  5
48
102
{ACAD_REACTORS
330
47
102
}
330
47
100
AcDbScale
 70
     0
300
1:1
140
1.0
141
1.0
290
     1
  0
SCALE
  5
49
102
{ACAD_REACTORS
330
47
102
}
330
47
100
AcDbScale
 70
     0
300
1:2
140
1.0
141
2.0
290
     0
  0
SCALE
  5
4A
102
{ACAD_REACTORS
330
47
102
}
330
47
100
AcDbScale
 70
     0
300
1:4
140
1.0
141
4.0
290
     0
  0
SCALE
  5
4B
102
{ACAD_REACTORS
330
47
102
}
330
47
100
AcDbScale
 70
     0
300
1:5
140
1.0
141
5.0
290
     0
  0
SCALE
  5
4C
102
{ACAD_REACTORS
330
47
102
}
330
47
100
AcDbScale
 70
     0
300
1:8
140
1.0
141
8.0
290
     0
  0
SCALE
  5
4D
102
{ACAD_REACTORS
330
47
102
}
330
47
100
AcDbScale
 70
     0
300
1:10
140
1.0
141
10.0
290
     0
  0
SCALE
  5
4E
102
{ACAD_REACTORS
330
47
102
}
330
47
100
AcDbScale
 70
     0
300
1:16
140
1.0
141
16.0
290
     0
  0
SCALE
  5
4F
102
{ACAD_REACTORS
330
47
102
}
330
47
100
AcDbScale
 70
     0
300
1:20
140
1.0
141
20.0
290
     0
  0
SCALE
  5
50
102
{ACAD_REACTORS
330
47
102
}
330
47
100
AcDbScale
 70
     0
300
1:30
140
1.0
141
30.0
290
     0
  0
SCALE
  5
51
102
{ACAD_REACTORS
330
47
102
}
330
47
100
AcDbScale
 70
     0
300
1:40
140
1.0
141
40.0
290
     0
  0
SCALE
  5
52
102
{ACAD_REACTORS
330
47
102
}
330
47
100
AcDbScale
 70
     0
300
1:50
140
1.0
141
50.0
290
     0
  0
SCALE
  5
53
102
{ACAD_REACTORS
330
47
102
}
330
47
100
AcDbScale
 70
     0
300
1:100
140
1.0
141
100.0
290
     0
  0
SCALE
  5
54
102
{ACAD_REACTORS
330
47
102
}
330
47
100
AcDbScale
 70
     0
300
2:1
140
2.0
141
1.0
290
     0
  0
SCALE
  5
55
102
{ACAD_REACTORS
330
47
102
}
330
47
100
AcDbScale
 70
     0
300
4:1
140
4.0
141
1.0
290
     0
  0
SCALE
  5
56
102
{ACAD_REACTORS
330
47
102
}
330
47
100
AcDbScale
 70
     0
300
8:1
140
8.0
141
1.0
290
     0
  0
SCALE
  5
57
102
{ACAD_REACTORS
330
47
102
}
330
47
100
AcDbScale
 70
     0
300
10:1
140
10.0
141
1.0
290
     0
  0
SCALE
  5
58
102
{ACAD_REACTORS
330
47
102
}
330
47
100
AcDbScale
 70
     0
300
100:1
140
100.0
141
1.0
290
     0
  0
SCALE
  5
59
102
{ACAD_REACTORS
330
47
102
}
330
47
100
AcDbScale
 70
     0
300
1/128" = 1'-0"
140
0.0078125
141
12.0
290
     0
  0
SCALE
  5
5A
102
{ACAD_REACTORS
330
47
102
}
330
47
100
AcDbScale
 70
     0
300
1/64" = 1'-0"
140
0.015625
141
12.0
290
     0
  0
SCALE
  5
5B
102
{ACAD_REACTORS
330
47
102
}
330
47
100
AcDbScale
 70
     0
300
1/32" = 1'-0"
140
0.03125
141
12.0
290
     0
  0
SCALE
  5
5C
102
{ACAD_REACTORS
330
47
102
}
330
47
100
AcDbScale
 70
     0
300
1/16" = 1'-0"
140
0.0625
141
12.0
290
     0
  0
SCALE
  5
5D
102
{ACAD_REACTORS
330
47
102
}
330
47
100
AcDbScale
 70
     0
300
3/32" = 1'-0"
140
0.09375
141
12.0
290
     0
  0
SCALE
  5
5E
102
{ACAD_REACTORS
330
47
102
}
330
47
100
AcDbScale
 70
     0
300
1/8" = 1'-0"
140
0.125
141
12.0
290
     0
  0
SCALE
  5
5F
102
{ACAD_REACTORS
330
47
102
}
330
47
100
AcDbScale
 70
     0
300
3/16" = 1'-0"
140
0.1875
141
12.0
290
     0
  0
SCALE
  5
60
102
{ACAD_REACTORS
330
47
102
}
330
47
100
AcDbScale
 70
     0
300
1/4" = 1'-0"
140
0.25
141
12.0
290
     0
  0
SCALE
  5
61
102
{ACAD_REACTORS
330
47
102
}
330
47
100
AcDbScale
 70
     0
300
3/8" = 1'-0"
140
0.375
141
12.0
290
     0
  0
SCALE
  5
62
102
{ACAD_REACTORS
330
47
102
}
330
47
100
AcDbScale
 70
     0
300
1/2" = 1'-0"
140
0.5
141
12.0
290
     0
  0
SCALE
  5
63
102
{ACAD_REACTORS
330
47
102
}
330
47
100
AcDbScale
 70
     0
300
3/4" = 1'-0"
140
0.75
141
12.0
290
     0
  0
SCALE
  5
64
102
{ACAD_REACTORS
330
47
102
}
330
47
100
AcDbScale
 70
     0
300
1" = 1'-0"
140
1.0
141
12.0
290
     0
  0
SCALE
  5
65
102
{ACAD_REACTORS
330
47
102
}
330
47
100
AcDbScale
 70
     0
300
1-1/2" = 1'-0"
140
1.5
141
12.0
290
     0
  0
SCALE
  5
66
102
{ACAD_REACTORS
330
47
102
}
330
47
100
AcDbScale
 70
     0
300
3" = 1'-0"
140
3.0
141
12.0
290
     0
  0
SCALE
  5
67
102
{ACAD_REACTORS
330
47
102
}
330
47
100
AcDbScale
 70
     0
300
6" = 1'-0"
140
6.0
141
12.0
290
     0
  0
SCALE
  5
68
102
{ACAD_REACTORS
330
47
102
}
330
47
100
AcDbScale
 70
     0
300
1'-0" = 1'-0"
140
12.0
141
12.0
290
     0
  0
ENDSEC
  0
EOF
